<svg xmlns="http://www.w3.org/2000/svg" x="0px" y="0px"
width="90" height="90"
viewBox="0 0 224 224"
style=" fill:#000000;"><g fill="none" fill-rule="nonzero" stroke="none" stroke-width="1" stroke-linecap="butt" stroke-linejoin="miter" stroke-miterlimit="10" stroke-dasharray="" stroke-dashoffset="0" font-family="none" font-weight="none" font-size="none" text-anchor="none" style="mix-blend-mode: normal"><path d="M0,224v-224h224v224z" fill="none"></path><g fill="#555555"><path d="M194.0064,99.62027c0.03733,-0.8512 0.12693,-1.68747 0.12693,-2.5536c0,-32.98773 -26.7456,-59.73333 -59.73333,-59.73333c-23.22133,0 -43.30667,13.2832 -53.18507,32.6368c-4.33813,-1.75467 -9.0496,-2.77013 -14.01493,-2.77013c-18.89067,0 -34.3392,14.07467 -36.8256,32.28587c-17.65867,6.01067 -30.3744,22.6912 -30.3744,42.3808c0,24.74453 20.05547,44.8 44.8,44.8h134.4c24.74453,0 44.8,-20.05547 44.8,-44.8c0,-19.54773 -12.53653,-36.12373 -29.9936,-42.2464zM139.67893,139.67893l-22.4,22.4c-1.456,1.456 -3.36747,2.18773 -5.27893,2.18773c-1.91147,0 -3.82293,-0.73173 -5.27893,-2.18773l-22.4,-22.4c-2.91947,-2.91947 -2.91947,-7.6384 0,-10.55787c2.91947,-2.91947 7.6384,-2.91947 10.55787,0l9.6544,9.6544v-41.7088c0,-4.1216 3.3376,-7.46667 7.46667,-7.46667c4.12907,0 7.46667,3.34507 7.46667,7.46667v41.7088l9.6544,-9.6544c2.91947,-2.91947 7.6384,-2.91947 10.55787,0c2.91947,2.91947 2.91947,7.6384 0,10.55787z"></path></g></g></svg>