<svg xmlns="http://www.w3.org/2000/svg" x="0px" y="0px"
width="96" height="96"
viewBox="0 0 224 224"
style=" fill:#000000;"><g fill="none" fill-rule="nonzero" stroke="none" stroke-width="1" stroke-linecap="butt" stroke-linejoin="miter" stroke-miterlimit="10" stroke-dasharray="" stroke-dashoffset="0" font-family="none" font-weight="none" font-size="none" text-anchor="none" style="mix-blend-mode: normal"><path d="M0,224v-224h224v224z" fill="none"></path><g fill="#aaaaaa"><path d="M164.15,29.76458c-4.11799,0.06437 -7.40639,3.45065 -7.35,7.56875v131.30834l-17.12084,-17.12084c-1.40576,-1.44505 -3.33607,-2.2603 -5.35208,-2.26042c-3.03836,0.0008 -5.77329,1.84244 -6.9166,4.65749c-1.14331,2.81504 -0.46701,6.04214 1.71036,8.16127l29.21041,29.21042c1.40851,1.84823 3.59717,2.93542 5.92093,2.94113c2.32376,0.00572 4.51774,-1.07068 5.93533,-2.91197c0.00977,-0.01455 0.01949,-0.02913 0.02916,-0.04375l29.19583,-29.19584c1.9506,-1.87276 2.73635,-4.65373 2.05422,-7.27036c-0.68213,-2.61663 -2.72556,-4.66006 -5.34219,-5.34219c-2.61663,-0.68213 -5.3976,0.10362 -7.27036,2.05422l-17.12084,17.12084v-131.30834c0.02764,-2.01824 -0.76292,-3.96171 -2.19154,-5.38759c-1.42862,-1.42587 -3.37361,-2.21269 -5.39179,-2.18116zM37.33333,29.86667c-2.69275,-0.03808 -5.19741,1.37667 -6.55489,3.70252c-1.35749,2.32585 -1.35749,5.20245 0,7.5283c1.35749,2.32585 3.86215,3.7406 6.55489,3.70252h7.46667c2.69275,0.03808 5.19741,-1.37667 6.55489,-3.70252c1.35749,-2.32585 1.35749,-5.20245 0,-7.5283c-1.35749,-2.32585 -3.86215,-3.7406 -6.55489,-3.70252zM37.33333,59.73333c-2.69275,-0.03808 -5.19741,1.37667 -6.55489,3.70252c-1.35749,2.32585 -1.35749,5.20245 0,7.5283c1.35749,2.32585 3.86215,3.7406 6.55489,3.70252h22.4c2.69275,0.03808 5.19741,-1.37667 6.55489,-3.70252c1.35749,-2.32585 1.35749,-5.20245 0,-7.5283c-1.35749,-2.32585 -3.86215,-3.7406 -6.55489,-3.70252zM37.33333,89.6c-2.69275,-0.03808 -5.19741,1.37667 -6.55489,3.70252c-1.35749,2.32585 -1.35749,5.20245 0,7.5283c1.35749,2.32585 3.86215,3.7406 6.55489,3.70252h37.33333c2.69275,0.03808 5.19741,-1.37667 6.55489,-3.70252c1.35749,-2.32585 1.35749,-5.20245 0,-7.5283c-1.35749,-2.32585 -3.86215,-3.7406 -6.55489,-3.70252zM37.33333,119.46667c-2.69275,-0.03808 -5.19741,1.37667 -6.55489,3.70252c-1.35749,2.32585 -1.35749,5.20245 0,7.5283c1.35749,2.32585 3.86215,3.7406 6.55489,3.70252h44.8c2.69275,0.03808 5.19741,-1.37667 6.55489,-3.70252c1.35749,-2.32585 1.35749,-5.20245 0,-7.5283c-1.35749,-2.32585 -3.86215,-3.7406 -6.55489,-3.70252zM37.33333,149.33333c-2.69275,-0.03808 -5.19741,1.37667 -6.55489,3.70252c-1.35749,2.32585 -1.35749,5.20245 0,7.5283c1.35749,2.32585 3.86215,3.7406 6.55489,3.70252h59.73333c2.69275,0.03808 5.19741,-1.37667 6.55489,-3.70252c1.35749,-2.32585 1.35749,-5.20245 0,-7.5283c-1.35749,-2.32585 -3.86215,-3.7406 -6.55489,-3.70252zM37.33333,179.2c-2.69275,-0.03808 -5.19741,1.37667 -6.55489,3.70252c-1.35749,2.32585 -1.35749,5.20245 0,7.5283c1.35749,2.32585 3.86215,3.7406 6.55489,3.70252h74.66667c2.69275,0.03808 5.19741,-1.37667 6.55489,-3.70252c1.35749,-2.32585 1.35749,-5.20245 0,-7.5283c-1.35749,-2.32585 -3.86215,-3.7406 -6.55489,-3.70252z"></path></g></g></svg>