<svg xmlns="http://www.w3.org/2000/svg" x="0px" y="0px"
width="90" height="90"
viewBox="0 0 224 224"
style=" fill:#000000;"><g fill="none" fill-rule="nonzero" stroke="none" stroke-width="1" stroke-linecap="butt" stroke-linejoin="miter" stroke-miterlimit="10" stroke-dasharray="" stroke-dashoffset="0" font-family="none" font-weight="none" font-size="none" text-anchor="none" style="mix-blend-mode: normal"><path d="M0,224v-224h224v224z" fill="none"></path><g fill="#aaaaaa"><path d="M171.73333,22.4c-16.4949,0 -29.86667,13.37176 -29.86667,29.86667c0.01331,2.09938 0.24794,4.1915 0.7,6.24167l-67.8125,33.90625c-5.65863,-6.51473 -13.8584,-10.26365 -22.4875,-10.28125c-16.4949,0 -29.86667,13.37176 -29.86667,29.86667c0,16.4949 13.37176,29.86667 29.86667,29.86667c8.63188,-0.00972 16.83742,-3.75353 22.50208,-10.26667l67.76875,33.89166c-0.44225,2.05121 -0.66711,4.14332 -0.67084,6.24167c0,16.4949 13.37176,29.86667 29.86667,29.86667c16.4949,0 29.86667,-13.37176 29.86667,-29.86667c0,-16.4949 -13.37176,-29.86667 -29.86667,-29.86667c-8.63188,0.00972 -16.83742,3.75353 -22.50208,10.26667l-67.76875,-33.89166c0.44225,-2.05121 0.66711,-4.14332 0.67084,-6.24167c-0.01434,-2.0945 -0.24896,-4.18167 -0.7,-6.22708l67.8125,-33.90625c5.66133,6.5093 13.86071,10.25274 22.4875,10.26667c16.4949,0 29.86667,-13.37176 29.86667,-29.86667c0,-16.4949 -13.37176,-29.86667 -29.86667,-29.86667z"></path></g></g></svg>