<?xml version="1.0" encoding="UTF-8" standalone="no"?>
<!-- Generator: Adobe Illustrator 19.0.0, SVG Export Plug-In . SVG Version: 6.00 Build 0)  -->

<svg
   xmlns:dc="http://purl.org/dc/elements/1.1/"
   xmlns:cc="http://creativecommons.org/ns#"
   xmlns:rdf="http://www.w3.org/1999/02/22-rdf-syntax-ns#"
   xmlns:svg="http://www.w3.org/2000/svg"
   xmlns="http://www.w3.org/2000/svg"
   xmlns:sodipodi="http://sodipodi.sourceforge.net/DTD/sodipodi-0.dtd"
   xmlns:inkscape="http://www.inkscape.org/namespaces/inkscape"
   version="1.1"
   id="Layer_1"
   x="0px"
   y="0px"
   viewBox="0 0 534.86702 751.4"
   xml:space="preserve"
   sodipodi:docname="act.svg"
   width="534.867"
   height="751.40002"
   inkscape:version="0.92.3 (2405546, 2018-03-11)"><metadata
   id="metadata48"><rdf:RDF><cc:Work
       rdf:about=""><dc:format>image/svg+xml</dc:format><dc:type
         rdf:resource="http://purl.org/dc/dcmitype/StillImage" /><dc:title></dc:title></cc:Work></rdf:RDF></metadata><defs
   id="defs46" /><sodipodi:namedview
   pagecolor="#ffffff"
   bordercolor="#666666"
   borderopacity="1"
   objecttolerance="10"
   gridtolerance="10"
   guidetolerance="10"
   inkscape:pageopacity="0"
   inkscape:pageshadow="2"
   inkscape:window-width="1920"
   inkscape:window-height="1031"
   id="namedview44"
   showgrid="false"
   fit-margin-top="0"
   fit-margin-left="0"
   fit-margin-right="0"
   fit-margin-bottom="0"
   inkscape:zoom="0.79285994"
   inkscape:cx="208.58989"
   inkscape:cy="378.69169"
   inkscape:window-x="1366"
   inkscape:window-y="0"
   inkscape:window-maximized="1"
   inkscape:current-layer="XMLID_95_" />
<style
   type="text/css"
   id="style2">
	.st0{fill:url(#XMLID_21_);}
	.st1{fill:#010101;}
	.st2{fill:#F15A29;}
	.st3{fill:#27AAE1;}
</style>
<g
   id="XMLID_19_">
	<radialGradient
   id="XMLID_21_"
   cx="297.64001"
   cy="420.94501"
   r="592.9231"
   gradientUnits="userSpaceOnUse">
		<stop
   offset="0"
   style="stop-color:#FFFFFF"
   id="stop4" />
		<stop
   offset="0.4428"
   style="stop-color:#FDFDFD"
   id="stop6" />
		<stop
   offset="0.6024"
   style="stop-color:#F6F6F7"
   id="stop8" />
		<stop
   offset="0.716"
   style="stop-color:#EBEBEB"
   id="stop10" />
		<stop
   offset="0.808"
   style="stop-color:#DADADB"
   id="stop12" />
		<stop
   offset="0.8867"
   style="stop-color:#C4C5C6"
   id="stop14" />
		<stop
   offset="0.9551"
   style="stop-color:#A9ABAD"
   id="stop16" />
		<stop
   offset="1"
   style="stop-color:#939598"
   id="stop18" />
	</radialGradient>
	
	<g
   id="XMLID_5_">
		<path
   id="XMLID_108_"
   d="m 167.2,172.5 c 0,-0.4 -0.1,-0.7 -0.2,-1.1 0,-0.1 0.1,-0.2 0.1,-0.3 l -0.6,-0.8 c -0.2,-0.4 -0.5,-0.8 -0.9,-1.1 v 0 c 0,0 0,0 0,0 -6.5,-6.6 -32.5,-9.1 -50.8,-9.1 -8.3,0 -18.3,0.5 -27.2,1.7 V 74.7 L 25.3,0 H 0 v 173.9 l 74.9,46.3 12.7,-2.5 v -5.4 c 5.8,9.2 9.9,19.7 10.7,38.7 l 2,-0.1 c -0.3,-6.3 -0.9,-11.8 -1.9,-16.6 0.2,0.2 0.4,0.5 0.6,0.7 1,1.1 2.1,1.8 3.1,1.9 0.4,4.4 0.6,8.9 0.7,13.4 h 2 c -0.1,-4.6 -0.3,-9.2 -0.7,-13.7 1.1,-0.6 1.7,-1.7 2.1,-2.4 l 1.3,-2.3 c 0.6,3.7 0.5,7.5 0.5,11.2 0,2.5 0,5 0.1,7.5 l 2,-0.1 c -0.1,-2.4 -0.1,-5 -0.1,-7.4 0,-3.7 0,-7.5 -0.5,-11.2 0.5,0.7 1.1,1.4 1.7,2 0.6,0.7 1.4,1.6 2.5,2.1 0.2,0.1 0.5,0.2 0.7,0.3 0.2,0.7 0.2,1.5 0.2,2.3 l -0.1,11.1 h 2 l 0.1,-11.1 c 0,-0.6 0,-1.3 -0.1,-2 0.3,0 0.5,-0.1 0.8,-0.1 1.7,-0.5 2.6,-2 3.4,-3.3 0.2,-0.3 0.4,-0.6 0.6,-0.9 0.6,5.9 0.6,11.8 0.1,17.7 l 2,0.2 c 0.5,-5.5 0.5,-11 0,-16.5 0.7,0.9 1.5,1.7 2.3,2.3 v 14.1 h 2 v -12.9 c 0.6,0.3 1.3,0.5 2,0.5 -0.6,4 -1.1,8.4 -1.3,13.4 l 2,0.1 c 1,-24.4 7.5,-34.7 16,-46.4 h 0.1 c 0,-0.1 0,-0.1 0,-0.2 0.5,-0.7 1,-1.4 1.5,-2.1 4.8,-6.6 10.3,-14.1 15.4,-24.8 0.1,-0.1 0.1,-0.2 0.2,-0.4 2.3,-1.4 3.6,-3 3.6,-4.8 z m -3,0 c 0,0 0,0 0,0 -0.2,0.5 -0.5,1 -0.7,1.3 -0.5,0.5 -1.1,0.9 -2,1.4 0.1,-0.4 0.3,-0.7 0.4,-1.1 0.4,-1.1 0.9,-2.2 1.3,-3.3 0.6,0.6 1,1.2 1,1.7 z m -82.4,28 c -0.9,-1.3 -1.9,-2.6 -2.9,-4 l 1.1,0.7 V 197 l 2,2.5 c -0.1,0.2 -0.1,0.6 -0.2,1 z M 59.5,172.9 62.1,172 c 0.1,0.3 0.3,0.6 0.4,0.9 0.1,1.2 0.8,2.3 2,3.3 0.1,0.1 0.1,0.2 0.2,0.3 z m 6.1,-0.7 c 0.1,-0.2 0.2,-0.4 0.3,-0.6 l 1.4,0.9 v -2.1 c 0.1,-0.1 0.2,-0.1 0.3,-0.2 l 1.6,-0.5 v 6 c -1.4,-0.6 -2.4,-1.2 -2.9,-1.8 -0.3,-0.7 -0.6,-1.2 -0.7,-1.7 z m 2.9,6.4 c 0.2,0.1 0.4,0.2 0.6,0.3 v 0.8 c -0.2,-0.4 -0.4,-0.7 -0.6,-1.1 z M 80,178.3 c 0.7,-0.3 1.3,-0.6 2,-0.8 v 1.7 c -0.7,-0.1 -1.4,-0.3 -2,-0.4 z m 2,-4.1 c -0.7,0.3 -1.3,0.5 -2,0.8 v -8.9 c 0.6,-0.1 1.3,-0.3 2,-0.4 z m -12.9,-8.1 c -0.7,0.3 -1.3,0.6 -1.9,0.9 V 112 L 47.8,95.2 v 64.4 l 14.1,9.4 -5.3,1.8 -12.8,-9.1 V 86 l 25.3,23.7 z M 80,193.7 v -11.8 c 0.7,0.1 1.3,0.3 2,0.4 v 13.9 z m 7.6,-14.6 c 0.1,0.4 0.3,0.7 0.4,1.1 -0.1,0 -0.3,0 -0.4,-0.1 z m 0.8,-4 c 7.4,-2.6 13.7,-4.2 16,-4.7 -0.1,1.1 -0.2,2.2 -0.3,3.3 -0.1,0.8 -0.1,1.5 -0.2,2.3 -0.2,1.9 -0.4,3.8 -0.7,5.6 -4.7,-0.2 -9.1,-0.6 -13,-1.1 -0.7,-1.9 -1.3,-3.6 -1.8,-5.4 z m 17.5,1 c 0.1,-0.8 0.1,-1.5 0.2,-2.3 0.1,-1.3 0.2,-2.6 0.4,-3.9 h 0.1 v -0.5 c 0.1,-1.1 0.3,-2.2 0.5,-3.3 0.4,2 0.7,3.9 1.1,5.9 0.6,3.2 1.2,6.5 1.7,9.7 0,0 0,0 0,0.1 -1.6,0 -3.1,-0.1 -4.6,-0.1 0.2,-1.9 0.4,-3.7 0.6,-5.6 z m -3.2,8.4 c -0.7,4 -1.7,8 -3,11.9 -0.3,1 -0.8,1.6 -1.1,1.6 -0.3,-0.1 -0.7,-0.7 -0.8,-1 -2.5,-4.7 -4.6,-9.1 -6.3,-13.4 3.7,0.4 7.5,0.7 11.2,0.9 z m -5,19 0.7,-1.8 c 0.8,1.4 1.8,2.5 2.9,3.7 0.6,0.6 1.1,1.3 1.6,2 0.7,1 1.6,1.9 2.7,2.4 l -2.4,5.4 c -0.4,0.9 -0.8,1.8 -1.3,2.4 -0.5,0.6 -1.3,1 -1.9,0.9 -1,-0.1 -1.9,-1.3 -2.5,-2.3 -0.3,-0.5 -0.6,-1 -0.9,-1.5 -1.1,-1.8 -2.1,-3.5 -2.9,-5.3 0.4,-0.2 0.7,-0.5 1.1,-0.8 1.5,-1.5 2.3,-3.4 2.9,-5.1 z m 6.9,2.7 c -0.6,-0.7 -1.1,-1.4 -1.7,-2.1 -1.2,-1.4 -2.4,-2.8 -3.2,-4.4 0.8,-0.4 1.5,-1.3 1.9,-2.7 1.3,-4.1 2.4,-8.2 3.1,-12.4 1.9,0.1 3.8,0.1 5.7,0.2 0.7,3.7 1.6,7.4 3.1,11 0.4,0.9 0.9,1.6 1.4,2 l -2.1,4.3 c -0.5,0.9 -0.9,1.9 -1.5,2.8 -0.6,0.8 -1.3,1.5 -2.1,2.2 -0.6,0.6 -1.2,1.1 -1.9,1.2 -0.1,0 -0.3,-0.1 -0.4,-0.1 0,0 -0.1,0 -0.1,0 -0.8,-0.3 -1.6,-1.2 -2.2,-2 z m 7.8,-21.4 c 0.8,0 1.6,0 2.4,0 2.4,0 4.9,0 7.5,-0.1 -1.2,3.9 -3,7.6 -5.3,11 -0.1,0.1 -0.2,0.3 -0.4,0.5 -0.1,0 -0.3,-0.1 -0.4,-0.1 0,0 -0.1,0 -0.1,0 -0.2,-0.2 -0.5,-0.6 -0.8,-1.1 -1.4,-3.3 -2.2,-6.7 -2.9,-10.2 z m -1.8,23.6 c 0.8,-0.7 1.6,-1.5 2.3,-2.4 0.7,-1 1.2,-2 1.7,-3.1 l 1.9,-3.9 c 0.9,1.1 1.7,2.2 2.6,3.4 1.2,1.5 2.4,3.1 3.6,4.6 0.1,0.2 0.3,0.3 0.4,0.5 -1.2,1.4 -2.1,3 -3,4.6 -0.8,1.5 -1.6,2.9 -2.6,4.2 -0.3,0.4 -0.5,0.5 -0.6,0.5 -0.2,0 -0.6,-0.2 -0.7,-0.3 -3.1,-2.1 -5.6,-4.4 -7.5,-6.7 0.8,-0.4 1.4,-0.9 1.9,-1.4 z m 10.1,-7.3 c -0.9,-1.2 -1.8,-2.3 -2.7,-3.5 0.3,-0.3 0.5,-0.6 0.7,-0.8 2.5,-3.7 4.4,-7.8 5.8,-12.2 1.3,-0.1 2.5,-0.1 3.8,-0.2 0.1,0.8 0.1,1.5 0.2,2.3 0.1,2.5 0.3,5.4 1.3,8 0.4,1 0.9,1.6 1.5,2 -1.6,3.3 -3.4,6.6 -6.1,9 -0.3,0.3 -0.5,0.4 -0.5,0.4 -0.1,0 -0.2,-0.2 -0.2,-0.3 -1.4,-1.6 -2.6,-3.1 -3.8,-4.7 z m 6.3,-32.4 c 0.2,2 0.3,3.9 0.5,5.8 0.2,2.3 0.4,4.6 0.6,6.9 -0.9,0.1 -1.9,0.1 -2.8,0.1 0.2,-0.7 0.3,-1.5 0.5,-2.3 0.3,-1.9 0.5,-3.9 0.7,-5.8 0.1,-1.5 0.3,-3.1 0.5,-4.7 z m -0.6,38.5 c 2.5,-2.2 4.3,-5 5.7,-7.9 0.7,2.6 1.6,5.2 2.8,8.1 0.1,0.3 0.3,0.7 0.7,1.1 -1.4,2.2 -2.7,4.5 -3.7,6.9 l -0.1,0.2 c -0.3,0.7 -0.5,1.3 -0.9,1.7 -0.3,0.3 -0.8,0.4 -1,0.3 -0.1,-0.1 -0.3,-0.4 -0.4,-0.6 -0.7,-1.6 -1.5,-3.2 -2.2,-4.8 -0.7,-1.4 -1.3,-2.9 -2,-4.3 0.4,-0.2 0.7,-0.4 1.1,-0.7 z m 5.8,-12.3 c -0.2,0 -0.4,-0.3 -0.7,-1 -0.9,-2.3 -1,-4.9 -1.2,-7.4 0,-0.8 -0.1,-1.6 -0.2,-2.3 2.2,-0.1 4.3,-0.3 6.5,-0.5 -1,3.3 -2.1,6.6 -3.4,9.9 -0.3,0.9 -0.7,1.4 -1,1.3 z M 130,181.3 c -0.2,-2.3 -0.4,-4.7 -0.6,-6.9 -0.3,-3.5 -0.6,-7.2 -0.8,-10.8 4.6,0.3 8.8,0.7 12.5,1.2 -1.1,2.1 -1.4,4.6 -1.8,6.9 l -0.1,0.6 c -0.4,2.8 -1,5.6 -1.7,8.4 -2.3,0.2 -4.8,0.5 -7.5,0.6 z m 11.3,-8.7 0.1,-0.6 c 0.2,-1.4 0.4,-2.7 0.8,-4 0.2,4 0.5,8 0.8,12 -1.1,0.2 -2.2,0.3 -3.3,0.4 0.6,-2.6 1.1,-5.2 1.6,-7.8 z m 2.8,-7.4 c 8.1,1.2 14.1,2.9 17.3,4.6 l -0.1,0.2 c -0.4,1.1 -0.9,2.3 -1.3,3.4 -0.4,1 -0.8,2 -1.3,3 -3.3,1.2 -7.9,2.4 -13.7,3.3 -0.5,-4.9 -0.8,-9.7 -0.9,-14.5 z m -18,-1.8 c -1,3.2 -1.3,6.6 -1.7,9.8 -0.2,1.9 -0.4,3.8 -0.7,5.7 -0.2,0.9 -0.3,1.8 -0.6,2.7 -2.7,0.1 -5.4,0.1 -8.3,0.1 -1,0 -2,0 -3,0 0,-0.2 -0.1,-0.3 -0.1,-0.5 -0.6,-3.2 -1.2,-6.5 -1.7,-9.7 -0.5,-2.8 -1,-5.6 -1.5,-8.4 2,-0.1 4.1,-0.1 6.3,-0.1 4,0.2 7.8,0.3 11.3,0.4 z m -22.6,0 v 4.1 c -2.5,0.6 -8.7,2.1 -15.9,4.6 v -7.3 c 4.7,-0.6 10,-1.1 15.9,-1.4 z M 23.3,14.7 82,82 v 80.7 c -0.7,0.1 -1.3,0.2 -2,0.4 V 84.5 L 27.3,25.3 v 141.1 l 23,13.4 v 4.7 l -27,-15.8 V 14.7 Z M 62,191.4 V 189 c 0.5,-0.5 1.1,-0.9 1.6,-1.4 l 11.2,6.5 c 2,3 4,5.6 5.8,8.2 z M 91.5,215 c -1.2,-2.2 -2.5,-4.3 -3.9,-6.3 v -2.8 c 0.9,0.9 1.8,1.9 2.8,2.8 0.3,0.3 0.7,0.6 1.1,0.8 0,1.5 0,3.5 0,5.5 z m 1.1,-7.3 c -0.2,0 -0.6,-0.3 -0.8,-0.5 -1.5,-1.4 -2.9,-2.8 -4.2,-4.3 v -19.8 c 0.5,0.1 1,0.1 1.6,0.2 1.8,4.6 4.1,9.4 6.8,14.6 0.2,0.4 0.6,1.1 1.3,1.6 l -1.3,3.2 c -0.7,1.6 -1.3,3.2 -2.5,4.4 -0.4,0.4 -0.7,0.6 -0.9,0.6 z m 1.1,11.6 c -0.1,-1.8 -0.2,-4 -0.2,-6.1 0.5,0.9 1,1.7 1.5,2.5 0.3,0.5 0.6,1 0.9,1.5 0.8,1.3 1.8,2.8 3.4,3.2 -0.8,2.3 -1.7,4.6 -2.6,6.8 -0.9,-2.8 -1.9,-5.4 -3,-7.9 z m 10.8,13.9 c -0.4,0.8 -0.9,1.6 -1.6,1.7 -1,0.3 -2.1,-0.9 -2.4,-1.2 -1.2,-1.3 -2,-2.9 -2.5,-4.6 1,-2.4 2,-4.9 2.9,-7.4 0.9,0.8 1.9,1.7 2.8,2.5 1.3,1.1 2.6,2.3 3.8,3.4 0,0 0,0 0,0 z m 4.5,-6.9 c -1.3,-1.2 -2.6,-2.4 -3.9,-3.5 -1,-0.9 -2,-1.8 -3,-2.7 0.5,-0.3 1,-0.6 1.4,-1.1 0.8,-0.9 1.3,-2 1.7,-2.9 l 2.1,-4.9 c 1.9,2.5 4.6,4.8 7.9,7 0.2,0.1 0.4,0.3 0.8,0.4 -0.5,2.6 -1.5,5 -3,7.2 -0.5,0.8 -1.3,1.7 -2.2,1.6 -0.7,-0.1 -1.2,-0.6 -1.8,-1.1 z m 10,5.8 c -0.7,1.2 -1.3,2.2 -2.3,2.5 -0.6,0.2 -1.3,0.1 -2,-0.3 -0.8,-0.4 -1.4,-1.1 -1.9,-1.7 -1,-1.1 -1.8,-2.2 -2.5,-3.2 0.1,0 0.2,0 0.3,0 1.4,0.1 2.8,-0.7 4,-2.5 1,-1.5 1.9,-3.2 2.5,-5 0.7,2.1 1.6,4.2 2.8,6.4 0.2,0.4 0.5,1 1,1.5 -0.9,0.7 -1.4,1.5 -1.9,2.3 z m 3.7,-3.4 c -0.4,-0.1 -0.8,-0.7 -1.1,-1.3 -1.7,-3.3 -2.8,-6.1 -3.5,-9 0.4,-0.2 0.7,-0.5 0.9,-0.8 1.2,-1.4 2,-3 2.9,-4.5 0.7,-1.2 1.3,-2.4 2.1,-3.5 0.5,1.1 1,2.3 1.5,3.4 0.7,1.6 1.5,3.2 2.2,4.8 0.2,0.4 0.4,1 0.9,1.4 0.2,0.1 0.3,0.2 0.5,0.3 l -0.8,2.7 c -0.3,1.1 -0.6,2.2 -1.2,3.1 -0.7,1.1 -1.8,2 -2.8,2.7 -0.5,0.4 -1.1,0.9 -1.6,0.7 z m 7.5,6.9 c -1.2,0 -2.4,-0.7 -3.1,-1.3 -1.3,-1 -2.4,-2.3 -3.1,-3.8 0.6,-0.2 1.2,-0.6 1.7,-0.9 1.1,-0.8 2.4,-1.9 3.3,-3.3 0.6,-0.9 1,-2 1.2,-3 0.3,1.5 0.7,3.1 1.2,4.7 0,0.1 0.2,0.5 0.4,0.8 -0.7,2.2 -1.2,4.4 -1.6,6.8 z m 2.5,-9.9 c -0.6,-2.2 -1,-4.2 -1.2,-6.3 0.3,-0.2 0.6,-0.4 0.8,-0.6 0.7,-0.7 1,-1.6 1.4,-2.4 l 0.1,-0.2 c 0.7,-1.7 1.5,-3.3 2.5,-4.8 0,0.2 0.1,0.4 0.1,0.6 0.2,1.4 0.4,2.6 0.4,4.4 -1.6,2.7 -3,5.8 -4.1,9.3 z M 145,200.1 c -0.1,1.2 -0.2,2.4 -0.3,3.6 -2.2,3.1 -4.3,6.1 -6.3,9.4 -0.1,-0.5 -0.1,-1 -0.2,-1.5 -0.1,-0.9 -0.2,-1.8 -0.4,-2.9 0.3,-0.2 0.5,-0.3 0.8,-0.6 2.5,-2.4 4.6,-5.4 6.3,-8.1 0.1,0 0.1,0.1 0.1,0.1 z m -7.7,6.6 c -0.2,0.2 -0.3,0.3 -0.4,0.3 0,-0.1 -0.1,-0.2 -0.1,-0.3 -1.4,-3.7 -2.5,-6.9 -3.3,-10.1 0.6,-0.3 1.2,-1 1.7,-2.2 1.5,-3.5 2.7,-7.2 3.7,-10.8 1.5,-0.2 2.9,-0.4 4.4,-0.6 0.2,2.5 0.5,5 0.8,7.4 l 0.3,2.8 c 0.1,0.7 0.2,1.7 0.9,2.5 -2.6,4.3 -4.9,8 -8,11 z m 9,-13.8 -0.3,-2.8 c -0.3,-2.5 -0.5,-5 -0.8,-7.5 4.3,-0.7 8.3,-1.5 11.7,-2.5 -2.2,4.3 -4.6,8.5 -7.4,12.5 -0.5,0.7 -0.9,1.3 -1.5,1.6 -0.4,0.3 -1,0.3 -1.3,0 -0.2,-0.2 -0.3,-0.7 -0.4,-1.3 z m 9.7,-5.6 c -3.1,5.1 -6.2,9.4 -9.1,13.3 0,-0.1 0,-0.3 0,-0.4 0.1,-1.2 0.2,-2.5 0.3,-3.8 0.6,0 1.1,-0.1 1.7,-0.4 0.9,-0.5 1.6,-1.3 2.2,-2.2 1.9,-2.7 3.6,-5.5 5.2,-8.3 -0.1,0.6 -0.2,1.2 -0.3,1.8 z m 3.3,-5.8 c 0.2,-0.8 0.5,-1.7 0.8,-2.5 0.2,-0.1 0.5,-0.2 0.7,-0.3 -0.5,1 -1,1.9 -1.5,2.8 z"
   inkscape:connector-curvature="0" />
	</g>
	<g
   id="XMLID_1_">
		<g
   id="XMLID_3_">
			<path
   id="XMLID_4_"
   class="st1"
   d="m 485.8,704.9 c 0,-0.1 -0.1,-0.1 -0.1,-0.2 0,0.1 0,0.1 0.1,0.2 z"
   inkscape:connector-curvature="0"
   style="fill:#010101" />
			<path
   id="XMLID_22_"
   class="st1"
   d="m 486.5,720.1 c 0,-0.1 -0.1,-0.2 -0.1,-0.3 0,0.1 0,0.2 0.1,0.3 z"
   inkscape:connector-curvature="0"
   style="fill:#010101" />
			<path
   id="XMLID_25_"
   class="st1"
   d="m 534.4,586.6 c -0.1,-0.3 -0.2,-0.6 -0.3,-0.8 -0.8,-2.3 -1.5,-4.7 -3.2,-6.7 -0.9,-1.1 -2,-2.1 -2.7,-3.3 -2.8,-5.2 -7.1,-9 -11.7,-12.4 -1.8,-1.4 -3.5,-2.9 -4.5,-5 -0.7,-1.5 -1.7,-2.7 -2.8,-3.9 -3.2,-3.4 -6.4,-6.7 -9.4,-10.2 -3.2,-3.6 -6.5,-7.2 -10.6,-9.7 -2.6,-1.6 -5.5,-2.7 -8.7,-2.1 -1.8,0.4 -3.5,1.1 -5.1,2.2 -1.7,1.1 -3.3,2.1 -5,3.2 -2.8,1.8 -5,4 -6.4,7.1 -0.1,0.3 -0.2,0.5 -0.6,0.6 -1.3,0.5 -2.5,1.1 -3.8,1.5 -5.8,2.1 -11.8,2.3 -17.8,2.6 -4.4,0.2 -8.8,-0.4 -13.2,-0.3 -5.9,0.1 -11.9,-0.8 -17.8,-0.6 -2.9,0.1 -5.8,-0.7 -8.8,-0.4 -2.9,0.2 -5.8,0.5 -8.7,0.5 -1.3,0 -2.6,0.1 -4,0.3 -3.4,0.4 -6.9,0.8 -10.3,1.2 -0.4,0 -0.9,0.2 -1.1,-0.4 -0.9,-2.4 -2.5,-4.4 -3.4,-6.8 -2.3,-6.7 -5.1,-13.1 -8,-19.5 -3.1,-6.7 -6.2,-13.4 -9.3,-20 -0.4,-0.8 -0.2,-1 0.6,-1.1 1.3,-0.2 2.7,-0.5 4,-0.6 3,-0.3 5.5,-2 8.1,-3.1 0.5,-0.2 0.7,-0.8 0.8,-1.4 0.1,-1 0.1,-1.9 -0.3,-2.8 -2.2,-4.5 -3.7,-9.4 -7.1,-13.2 -0.6,-0.7 -1,-1.6 -1.6,-2.4 -0.6,-1 -0.9,-2.1 -0.5,-3.2 0.2,-0.6 0.3,-1.3 0.2,-2 -0.2,-3 -0.1,-6.1 0,-9.1 0.1,-3.2 -0.5,-6.4 -0.4,-9.6 0.2,-6.1 -1.3,-11.7 -5.7,-16.3 -0.2,-0.3 -0.4,-0.6 -0.5,-1 -0.7,-2.8 -1.5,-5.6 -2.2,-8.4 -0.9,-4 -2.1,-7.7 -6.1,-9.6 -0.6,-0.3 -0.4,-0.6 -0.1,-1 1.8,-3 2.4,-6.1 0.6,-9.3 -0.5,-0.8 -0.4,-1.6 -0.1,-2.4 1,-2.9 2,-5.8 3.1,-8.7 1.1,-3 2.1,-5.9 3.6,-8.7 4.9,-9.3 9.9,-18.5 12.9,-28.6 1.4,-4.8 2.4,-9.7 3,-14.6 0.5,-3.5 -0.5,-6.9 -1.2,-10.3 -1.2,-5.3 -1.9,-10.7 -4.2,-15.7 -1.1,-2.4 -2.3,-4.7 -3,-7.3 -0.1,-0.4 -0.4,-0.9 -0.7,-1.2 -1.4,-1.4 -2.5,-3.1 -4.1,-4.3 -0.5,-0.4 -0.5,-0.6 0,-0.9 2.4,-1.9 5,-3.4 7.8,-4.4 2.7,-0.9 5.1,-2.2 7.3,-4 2.9,-2.5 4.4,-6 5.3,-9.7 0.3,-1.5 0.3,-3.1 2,-3.8 0.1,0 0.1,-0.1 0.1,-0.2 0.4,-0.6 0.7,-0.4 1,0 1.6,1.8 2.6,4 2.8,6.3 0.3,2.9 -0.3,5.8 -1.1,8.6 -0.2,0.7 -0.6,1.2 -1.1,1.6 -1.3,1.1 -2.4,2.5 -3.5,3.8 -2.5,3 -4,6.4 -4.6,10.2 -0.3,1.6 -0.4,3.4 0.7,4.8 1.9,2.4 4,4.4 6.7,5.8 2.1,1.1 4.1,2.4 5.8,4.1 2.9,2.8 5.8,5.5 9,7.9 1.2,0.9 2.4,1.8 3.4,3 2.9,3.4 6.5,5.8 10.4,7.8 3.2,1.7 6.5,1.8 9.9,1.2 2.4,-0.4 4.4,-1.6 6.6,-2.3 2.4,-0.7 4.4,-2.2 6.4,-3.6 0.2,-0.1 0.6,-0.3 0.4,-0.7 -0.2,-0.3 -0.5,-0.3 -0.8,-0.2 -1.1,0.3 -2.2,0.5 -3.4,0.4 -3.3,-0.4 -6.5,-1.3 -9.6,-2.5 -1.5,-0.6 -2.7,-1.5 -3.5,-3 2,0.4 3.9,1 5.9,1.1 1.1,0.1 2.1,0.1 3.1,-0.3 0.4,-0.2 0.9,-0.4 0.8,-0.9 0,-0.6 -0.5,-0.6 -1,-0.7 -0.8,-0.1 -1.5,-0.3 -2.2,-0.6 -4.8,-2.2 -9,-5.4 -12.6,-9.3 -2.4,-2.6 -4.5,-5.4 -5,-9 -0.9,-7.5 -1.8,-15 -2.5,-22.5 -0.5,-5.5 -1.7,-10.6 -5.6,-14.9 -4.3,-4.7 -9.3,-7.2 -15.7,-6.9 -0.3,0 -0.8,0.1 -0.8,-0.1 -0.2,-1 -0.8,-0.5 -1.3,-0.4 -0.5,0 -0.9,0.1 -1.4,0.1 -0.3,0 -0.5,0 -0.6,-0.3 -0.1,-0.3 -0.1,-0.5 0.1,-0.8 1.5,-1.4 2.6,-3.1 3.9,-4.6 4.3,-5.4 9.5,-9.9 13.3,-15.6 1.5,-2.3 3.5,-4.2 4.3,-7 0.5,-1.9 1.6,-3.7 2.7,-5.4 1,-1.5 2.1,-3.1 2.5,-5 0.9,-3.6 1.1,-7.3 1,-10.9 -0.1,-2.1 0.1,-4.1 0.9,-6.1 0.6,-1.6 1.3,-3.3 1.4,-5 0.1,-2.4 0.1,-4.9 -0.2,-7.4 -1.3,-11.2 -7.1,-19.3 -17.1,-24.5 -4.3,-2.2 -9,-3.1 -13.8,-3.2 -2.1,0.3 -4.2,0.4 -6.3,0.8 -16.1,3.1 -26.9,19.5 -23.7,35.8 1.5,7.5 5,13.7 11.1,18.4 6.9,5.3 14.6,7.5 23.2,6.3 0.7,-0.1 0.8,0 0.8,0.7 -0.2,1.8 -0.5,3.5 -0.7,5.2 -0.2,1.3 -1,2.2 -1.9,2.8 -3.8,2.6 -7.2,5.7 -10.8,8.4 -0.3,0.2 -0.8,0.5 -0.2,1 0.4,0.4 0.7,0.6 1.2,0.1 2.3,-2.1 5,-3.7 7.3,-5.8 1,-0.9 2.1,-1.5 3.3,-2.2 1.4,-0.7 2.5,-1.9 3,-3.4 0.8,-2 1.2,-4.1 1.6,-6.2 0.3,-1.6 0.7,-2 2.5,-1.9 -1,1.5 -1.5,3 -1.4,4.8 0,0.2 -0.1,0.4 -0.1,0.6 -0.5,3 -2.3,5.2 -4.5,7.1 -3.2,2.8 -6.3,5.7 -9.8,8.1 -1,0.7 -1.2,1.2 -0.3,2 0.2,0.2 0.4,0.6 0.4,0.9 -0.1,1.4 0.8,2.4 1.3,3.5 0.6,1.4 1.2,2.8 1.3,4.4 0,0 0,0 0,0 0,0 0,0 0,0 -0.2,-0.1 -0.3,-0.1 -0.3,-0.1 -0.1,-0.1 -0.2,-0.2 -0.2,-0.4 -0.7,-2.2 -1.5,-4.2 -3,-6.1 -0.9,-1.1 -1.5,-2.7 -2.7,-3.7 -2.7,-2.4 -5.3,-5.2 -9.4,-5.2 -0.3,0 -0.6,-0.1 -1,-0.2 -2.6,-0.9 -5.2,-1.6 -7.8,-2.2 -4.6,-1.1 -9.2,-1.8 -13.8,-0.5 -4.1,1.1 -7.7,3.1 -9.4,7.4 -0.5,1.3 -1,2.6 -1.9,3.7 -0.8,1.1 -1.6,2.2 -2.1,3.6 -0.5,0.8 -1,1.6 -1.5,2.4 -0.3,0.5 -1.3,0.8 -0.9,1.4 0.5,0.7 1.2,0 1.9,-0.2 0.1,0 0.1,-0.1 0.2,-0.1 0.7,-0.4 1,-0.9 0.5,-1.6 -0.3,-0.4 -0.3,-0.8 0.1,-1.2 0.2,-0.3 0.4,-0.7 0.5,-1.1 1.1,-1.3 2,-2.8 3.1,-4.2 2,-2.6 4.5,-4.6 7.5,-5.9 1.5,-0.6 3,-1.2 4.7,-1.1 1.4,0.1 2.9,0.3 3.7,1.3 0.8,1 1.5,1.6 2.9,1.3 -0.1,-0.4 -0.4,-0.7 -0.3,-1.1 0,-0.3 0.1,-0.5 0.4,-0.6 0.3,-0.1 0.6,-0.1 0.7,0.2 0.3,1.1 1.5,1.8 1.6,3.1 0,1 0.9,1.5 1.8,1.1 0.9,-0.3 1,-0.2 0.9,0.8 -0.1,0.7 0,1.3 1,1.3 0.9,0 1.8,0.1 2.7,0.2 0.3,0 0.8,0.1 0.9,0.4 0.3,1 0.9,1.6 1.8,2 0.5,0.2 0.2,1.1 0.6,1.2 1.3,0.3 1.9,1.5 3,2 0.9,0.4 1.8,0.6 2.6,1.2 0.2,0.1 0.4,0.3 0.3,0.5 -0.1,0.3 -0.3,0.3 -0.5,0.3 -0.9,0.1 -1.8,0 -2.7,-0.4 -1.4,-0.6 -2.3,-2 -3.8,-2.4 -0.3,-0.1 -0.7,-0.4 -0.6,-0.8 0,-0.6 -0.3,-0.7 -0.7,-0.9 -0.3,-0.1 -0.6,-0.4 -0.7,-0.7 -0.3,-1.1 -1.1,-1.2 -2.1,-1.2 -1,0 -2,0.2 -3,-0.1 -0.5,-0.1 -1.2,-0.4 -1,-1 0.3,-1.1 -0.5,-1.2 -1.1,-1.6 -0.8,-0.5 -1.6,-0.9 -2.3,-1.5 -0.2,-0.2 -0.4,-0.3 -0.7,0 -1.4,2 -1.3,4.2 0.2,6.1 0.4,0.5 0.9,1 1.4,1.5 0.7,0.7 1.2,1.4 1.3,2.4 0.2,1.6 1.1,2.7 2.4,3.4 1.4,0.7 2.1,1.8 2.5,3.2 0.4,1.3 0.5,2.6 0.5,3.9 0,0.7 -0.1,1.5 -0.7,2.1 -0.1,-0.2 -0.2,-0.3 -0.3,-0.5 -0.6,-1.4 -0.6,-2.9 -0.9,-4.3 -0.3,-1.2 -0.5,-2.4 -1.9,-3.1 -1.1,-0.5 -1.9,-1.4 -2.3,-2.6 -0.3,-0.8 -0.8,-0.9 -1.5,-0.5 -2.1,1 -4,2.3 -5.7,3.8 -0.8,0.8 -1.6,1.2 -2.7,1.1 -1.8,-0.1 -3.3,0.5 -4.1,2.2 -0.6,1.5 -1.2,3 -1.3,4.6 -0.2,3.7 -1.1,7.1 -4.8,8.9 -0.6,0.3 -1.1,0.5 -1.8,0.3 -2.2,-0.6 -4.5,-0.7 -6.8,-0.7 -0.9,0 -1.3,-0.4 -1.2,-1.3 0.1,-0.8 0.4,-1.5 0.4,-2.3 -0.1,-1.6 0.4,-2.4 2.1,-2.6 1.8,-0.3 3.1,-2 5.1,-2.1 0.4,0 0.3,-0.3 0.1,-0.6 -1.1,-1.7 -2.7,-2.8 -4.8,-2.8 -0.7,0 -0.6,-0.2 -0.5,-0.7 0.1,-0.6 0.4,-1.3 0.1,-1.9 -0.4,-0.2 -0.5,-0.6 -0.7,-1 0.7,0 0.7,0.6 1.1,0.8 0.6,0.4 1.2,0.8 1.8,1.2 1,0.7 2.9,0.2 3.7,-0.9 0.9,-1.2 0.8,-2 -0.4,-3.1 -0.1,-0.1 -0.3,-0.3 -0.4,-0.4 -0.6,-0.5 -1.2,-1 -1.9,-0.3 -0.7,0.7 -0.5,1.4 0.2,2 0.3,0.3 0.6,0.5 0.5,0.9 0,0.3 0,0.5 -0.3,0.6 -0.4,0.1 -0.4,-0.2 -0.5,-0.4 -0.3,-1.1 -1.1,-1.5 -2.1,-1.6 -0.5,-0.1 -1,-0.2 -1.5,-0.1 -1.1,0.1 -1.4,-0.5 -1.4,-1.4 -0.1,-0.1 -0.2,-0.3 -0.2,-0.4 -0.6,0.4 -0.7,1 -0.6,1.6 0.1,1 0.4,1.9 1,2.6 0.8,0.9 0.6,1.8 0.1,2.6 -0.5,0.8 -1,1.5 -0.6,2.5 0.2,0.4 -0.3,0.5 -0.4,0.7 -0.4,0.5 -0.8,1.1 -0.5,1.7 0.5,1 0.3,2 0,3 -0.3,1 -0.6,2 -0.9,3.1 -0.5,2.1 0.4,4.9 2.5,6 1.2,0.6 2.3,1.5 3.6,2.4 0,0 0,0 0,0 0,0 0,0 0,0 -1.2,0.4 -2.3,0.7 -3.4,1.1 v 0 c 0.2,0.3 0.5,0.1 0.7,0.2 0.7,-0.1 1.4,-0.3 2,-0.4 0.8,-0.1 1.7,0.2 2.5,-0.2 1.4,-0.6 2.8,-0.8 4.3,-1 3.5,-0.6 6.6,0.5 9.6,2 0.2,0.1 0.4,0.2 0.5,0.4 1.2,1.5 2.5,2.9 3.6,4.5 1.4,2 2.7,4 4.8,5.4 0.2,0.1 0.3,0.4 0.4,0.7 1.1,2.8 2,5.7 3,8.5 0.4,1.3 0.5,2.6 -0.1,4 -0.8,2.1 -1.6,4.2 -2,6.4 -0.1,0.8 -0.5,1.5 -0.9,2.3 -2.4,4.3 -4.8,8.6 -7.3,12.8 -1.7,2.9 -4.1,5 -6.7,6.8 -0.5,0.3 -1,0.6 -1.6,0.7 -2.5,0.4 -4.9,0.8 -7.4,0.4 -2.6,-0.4 -3.1,-0.9 -3.7,-3.5 -0.6,-2.6 -0.8,-5.3 -1.7,-7.8 -0.1,-0.3 -0.5,-0.7 0,-1.1 0.4,-0.3 0.7,-0.8 1.4,-0.4 0.7,0.4 1.5,0.2 2.3,0.1 3,-0.6 6.1,-0.9 9,-2.1 2.7,-1.1 5.2,-2.5 6.7,-5.2 0.7,-1.3 1.5,-2.5 2.6,-3.5 0.9,-0.7 1.1,-1.8 0.9,-2.9 -0.2,-1.6 -0.7,-3.1 -1.1,-4.6 -0.4,-1.2 -1,-2.1 -2.3,-2.3 -1.3,-0.2 -2.2,0.6 -2.9,1.6 -0.6,0.8 -1.1,1.7 -1.7,2.5 -0.8,1.1 -1.8,1.8 -3.3,1.8 -1,0 -2,0 -3,-0.2 -1.9,-0.3 -3.9,-0.6 -5.8,-0.4 -5.6,0.7 -11.3,1 -16.7,3.2 -3.9,1.6 -7.5,3.8 -11,5.9 -2.2,1.3 -4.2,2.8 -6.5,3.9 -1.4,0.7 -2.9,1.3 -4.3,2 -2.7,1.4 -5.5,2.7 -8.3,3.7 -6.6,2.2 -12.9,5 -19.1,8.1 -1,0.5 -2,0.8 -3.2,0.7 0,0 0,0 0,0 0,0 0,0 0,0 0.9,-1.8 1.4,-3.6 2.6,-5.1 1.2,-1.5 0.6,-3.2 -1.4,-3.5 -0.4,-0.1 -0.7,-0.1 -1.1,0 -3.2,0.4 -6.2,1.4 -8.8,3.5 -0.8,0.7 -1.7,1.3 -2.7,1.6 -1.6,0.4 -3.2,1.1 -4.7,1.8 -2,1 -5.8,0 -7.1,-1.7 -0.9,-1.3 -1.7,-2.7 -2,-4.2 -0.6,-3.3 -1.1,-6.7 -0.7,-10.2 0.4,-3.7 0.7,-7.5 0.9,-11.2 0.4,-4.8 -0.1,-9.4 -2.9,-13.5 -1.3,-1.9 -2.8,-3.6 -4.3,-5.4 -0.4,-0.5 -0.9,-1 -1,-1.7 -0.5,-2.5 -1.9,-4.4 -3.5,-6.3 -0.9,-1.1 -1.5,-2.4 -2.1,-3.7 -0.1,-0.3 -0.3,-0.7 -0.1,-0.9 0.3,-0.3 0.6,0 0.9,0.2 0.7,0.4 1.4,0.5 2.2,0 1.2,-0.7 1.6,-1.5 1.3,-2.8 -0.2,-1.1 -1,-2.1 -0.2,-3.2 0.1,-0.1 0,-0.3 -0.2,-0.4 -1.2,-0.7 -3,0.2 -3,1.6 0,1 -0.1,1.8 -1.4,1.8 -0.6,0 -0.8,0.7 -1.1,1.1 -0.1,1.1 -0.2,2.2 0.3,3.2 0.7,1.6 1.5,3.1 2.6,4.5 1,1.2 2,2.4 2.4,4 0.5,1.8 1.2,3.5 2.4,5.1 0.5,0.7 0.9,1.4 1,2.3 0.4,3.2 0.6,6.5 -0.1,9.7 -0.8,3.7 -1.4,7.3 -1.4,11.1 0.1,4.2 -0.7,8.5 0,12.8 0.6,4.1 0.6,8.3 1.9,12.4 1.3,3.9 3.5,7.1 6.4,9.9 0.3,0.3 0.7,0.5 1.1,0.6 2.1,0.6 4.2,0.8 6.4,0.8 4.4,0 8.7,-1.3 13.1,-1.9 4.2,-0.6 8.4,-1.7 12.4,-3.1 4.4,-1.5 8.9,-2.7 13.3,-4.3 2.9,-1.1 5.9,-1.8 8.7,-3.2 0,0 0,0 0,0 0,0 0,0 0,0 0,0.2 0.1,0.3 0.1,0.4 0.4,3.6 0.6,7.3 2.4,10.6 0.2,0.3 0.1,0.6 0,0.9 -0.9,2.9 -1.4,5.8 -2.6,8.6 -1.7,4 -3.5,8 -4.6,12.2 -1.7,6.2 -2.1,12.5 -2,18.9 0.1,3.3 -0.3,6.5 0.5,9.8 0,0.2 0,0.4 -0.1,0.5 -0.9,1.4 -0.4,2.7 0.4,4 0.5,0.8 1.3,1.5 1.5,2.4 0.4,1.7 0.9,3.4 0.2,5.2 -0.1,0.3 0,0.5 0,0.7 0.2,2.6 0.8,5.2 0.6,7.8 -0.2,4 -0.3,7.9 0.1,11.9 0.5,5 1.7,9.8 3.8,14.3 1.9,4.1 3.3,8.3 3.9,12.7 0.8,5.2 1.4,10.3 3.2,15.3 0.2,0.4 0.1,0.9 0.1,1.3 -0.1,1.3 0.2,2.6 0.7,3.7 0.9,2.1 1.7,4.3 2.2,6.6 1.3,5.9 3.2,11.5 6.4,16.7 0.6,0.9 0.9,2.1 1.8,2.7 0.6,0.4 0.8,0.8 0.9,1.4 1.2,4.6 1.8,9.3 2.8,13.9 1.7,7.5 3.5,15 6.8,22 1.7,3.7 3,7.5 4.1,11.4 2.2,7.4 6,13.8 12.8,17.9 2.6,1.6 5.3,2.7 8.6,2.4 3.3,-0.3 6.8,-0.3 10.1,0.8 1,0.3 2.1,0.5 3.2,0.6 2.6,0.2 5,1 7.2,2.5 5,3.5 10.2,6.8 15.8,9.4 5.2,2.4 9.9,5.5 14.5,9 5.6,4.3 10.9,9 16.6,13.1 2.7,1.9 5.2,4 7.4,6.3 3.1,3.4 6.5,6.5 9.9,9.6 3.9,3.5 7.6,7.2 10.6,11.6 4.8,6.8 10.5,12.9 16.6,18.5 3.1,2.8 5.7,5.9 7.8,9.6 0.5,0.9 1,1.7 1.5,2.6 0.5,0.8 1,1.5 1.8,2 0.2,0.1 0.4,0.2 0.4,0.6 0,1.8 -0.1,3.6 0.4,5.3 1.5,5.2 2.2,10.6 3.5,15.9 0.9,3.5 1.5,7.1 2.8,10.5 0.3,0.9 1,1.6 1.1,2.5 0.5,3.5 1,7 0.5,10.5 -0.6,3.8 -1.9,7.4 -2.6,11.1 -0.2,1.4 -0.4,2.7 -0.3,4 0.3,3 1.9,4.7 4.8,5.3 0.9,0 1.8,0 2.6,0 2.6,-0.3 5.2,-0.7 7.6,-1.7 2.9,-1.2 5.8,-2.5 7.9,-5 1.6,-1.9 3.2,-3.7 4.9,-5.5 2.9,-2.8 4.3,-6.3 4.9,-10.1 0.7,-4.5 0.8,-9 1.8,-13.4 0.6,-2.6 1.4,-5.3 1.5,-8 0.1,-3 1.5,-5.4 3,-7.8 1.1,-1.9 2.4,-3.6 2.7,-6 0.4,-3 -0.1,-5.6 -1.8,-8 -1.1,-1.6 -2.2,-3.3 -3.2,-5 -1.9,-3 -4.2,-5.5 -7.3,-7.2 -2.4,-1.3 -5,-2.4 -7.6,-3.5 -0.9,-0.4 -1.9,-0.5 -2.8,-1 -6.3,-3.5 -12.3,-7.4 -16.4,-13.7 -0.3,-0.5 -0.7,-1 -1,-1.4 -2.8,-3.7 -5.6,-7.3 -8.4,-11 -3.1,-4 -5.8,-8.2 -8.1,-12.7 -4.2,-8.4 -9.6,-16.1 -15.3,-23.4 -3.2,-4.1 -6.4,-8.3 -10.5,-11.7 -1.9,-1.6 -3.9,-3.1 -5.6,-4.9 -0.6,-0.7 -1.4,-1.3 -2.1,-1.9 -1.1,-1 -2.2,-2 -3.4,-3.1 0,0 0,0 0,0 0,0 0,0 0,0 1,-0.1 1.7,-0.1 2.5,-0.3 2.5,-0.5 4.9,-1.1 7.4,-1.6 7.1,-1.4 14.2,-2.4 21.4,-3.6 3.9,-0.6 7.7,-1.8 11.6,-2.6 6.2,-1.2 12.5,-1.6 18.7,-2.6 2,-0.3 3.9,-0.1 5.9,0.5 2.3,0.6 4.5,1.5 6.8,1.8 2.6,0.4 5,1.3 7.2,2.9 0.9,0.7 1.8,1.2 2.9,1.5 1.1,0.2 2,0.8 2.9,1.5 1.9,1.5 4.2,2.5 6.5,3.1 1.8,0.5 3.6,1.2 5.1,2.3 2.6,1.9 5.5,3.2 8.6,4 4.5,1.1 9,1.9 13.6,0.5 1,-0.3 1.9,-0.8 2.3,-1.8 1.3,-1.7 1.1,-3.1 0.5,-4.4 z M 394.2,243.4 c 0.1,0.4 -0.2,0.7 -0.2,1.1 0,0.7 0.1,1.4 -0.2,2.3 -0.5,-0.9 -0.2,-1.6 0,-2.3 0,-0.2 0,-0.4 0,-0.7 0.3,-3.2 -0.4,-6.3 -1.4,-9.3 -0.2,-0.6 -0.4,-1.2 -0.8,-1.7 -0.4,-0.5 -0.5,-1 -0.5,-1.5 -0.3,-0.3 -0.4,-0.7 -0.4,-1.1 -0.4,-0.9 -0.2,-1.9 -0.3,-2.9 0.5,0.7 0.3,1.6 0.6,2.4 0.1,0.4 0.3,0.9 0.4,1.3 0.7,1 1.6,1.9 2,3 1,3.1 2.2,6.1 0.8,9.4 0,0 0,0 0,0 0,0 0,0 0,0 z m -1.3,-17.1 c 0,-0.1 0.1,-0.2 0.1,-0.2 0.2,0 0.2,0 0.2,0.2 0,0.1 -0.1,0.2 -0.2,0.2 -0.1,0.1 -0.1,-0.1 -0.1,-0.2 z m 8.2,-0.1 c -0.4,3.8 -2.3,7.1 -3.2,10.7 -0.3,-0.8 -0.8,-1.4 -0.5,-2.3 0.1,-0.5 -0.6,-1.1 -0.1,-1.8 0.9,-1.3 1.3,-2.8 2.1,-4.2 0.5,-0.8 0.8,-1.8 1.7,-2.4 z m -6.2,-39.4 c 0.3,0.3 0.7,0.5 0.9,1.1 -0.6,-0.2 -0.9,-0.7 -1.2,-1.1 v 0 c -0.2,-0.2 -0.4,-0.3 -0.7,-0.6 0.6,0 0.8,0.3 1,0.6 z m -1,-1 c -0.1,0.1 -0.1,0.2 -0.2,0.2 -0.8,-0.6 -1.5,-1.1 -2.3,-1.7 1,0.3 1.7,0.9 2.5,1.5 z m -10.2,42.3 c -6.3,1.9 -12.8,2.7 -19.3,1.2 -0.4,-0.1 -0.9,-0.2 -1.2,-0.4 -2.2,-1.5 -4.4,-2.9 -6.5,-4.5 -3.2,-2.5 -5.5,-5.9 -7.4,-9.5 -0.6,-1.1 -1.2,-2.1 -1.4,-3.3 -0.5,-0.9 -0.6,-2 -1.4,-2.9 -0.2,1.4 0,2.7 0.5,3.8 2,4.5 4.1,9.1 7.7,12.7 1,1 2.1,1.7 3.2,2.5 -0.7,0.6 -1.3,0.4 -2.1,0 -5.6,-2.9 -8.3,-7.8 -9.4,-13.8 -0.6,-3.3 -0.6,-6.5 0,-9.8 0,-0.3 0.1,-0.6 0.2,-0.9 0.6,-4.1 2.3,-7.7 4.5,-11.1 6.9,-10.2 19.9,-15 31.8,-11.7 1.2,0.3 2.2,0.8 3.1,1.7 1.7,1.6 3.5,3.1 5.3,4.7 0.3,0.3 0.6,0.6 0.8,1 1.2,1.8 2.3,3.7 3.3,5.6 0.4,0.7 0.7,1.4 0.6,2.3 -0.1,-0.1 -0.2,-0.1 -0.3,-0.1 -2.5,-3.4 -6,-5.5 -9.7,-6.9 -5.4,-2.1 -11,-2.5 -16.6,-1.2 -1.8,0.4 -3.7,0.7 -5.5,1 -1.3,0.2 -2.4,0.5 -3.5,1.3 0.2,0.2 0.5,0.1 0.7,0.2 4,-1 8.1,-1.1 12.1,-1.5 5.5,-0.5 10.4,1 15.1,4 3.4,2.2 5.6,5.6 8.3,8.4 0.5,0.4 0.6,1.1 0.7,1.7 0.5,3 -0.2,5.8 -0.9,8.7 -0.1,0.4 -0.2,0.7 -0.3,1.1 -0.6,2.3 0,1.8 -2.4,1.7 -2,-0.1 -4,-0.8 -5.9,-1.4 -5.1,-1.7 -10.4,-3 -15.5,-5.1 -5.8,-2.4 -11.3,-5.5 -15.9,-9.8 -0.5,-0.5 -1.1,-0.9 -1.6,-1.3 -0.3,-0.2 -0.7,-0.6 -1,-0.2 -0.3,0.3 0.1,0.7 0.3,1 1.7,2.1 3.6,4.2 5.9,5.8 5.4,3.7 11,6.9 17.4,8.9 4,1.2 7.8,2.8 11.7,4.2 1.7,0.6 3.3,1.1 5.1,1.3 0.8,0.1 0.9,0.4 0.6,1.1 -0.6,1.3 -1.4,2.4 -2.2,3.5 -0.3,0.4 -0.4,0.3 -0.7,0 -1.3,-1.2 -2.7,-0.4 -3.9,0.1 -1.2,0.5 -2,1.5 -1.9,2.9 -0.1,2.3 -0.1,2.3 -2.4,3 z M 325.3,259 c 0.2,-0.5 0.3,-0.8 0.7,-1.1 0.1,0.7 -0.1,0.9 -0.7,1.1 z m 2.5,-3.4 c 0.2,-0.7 0.9,-0.9 1.4,-1.1 -0.3,0.6 -0.9,0.8 -1.4,1.1 z m -9.1,26.4 c -1.3,0.7 -2.4,1.1 -3.3,1.1 0.6,-1.2 1.5,-1.5 3.3,-1.1 z m 30.4,2.9 c 0.7,-0.9 1.1,-2.1 1.5,-3.2 0.2,-0.5 0.4,-0.9 1.1,-0.9 0.8,-0.1 1.5,-0.6 2.1,-1.1 1.1,-0.8 2.2,-1.6 3.6,-1.9 2,-0.5 3.7,0.3 4.5,1.9 1,1.9 0.7,3.8 -0.8,5.1 -0.2,0.2 -0.5,0.4 -0.8,0.5 -1.7,0.4 -3,1.4 -4.3,2.6 -0.7,0.7 -1.5,1.3 -2.6,1.2 -1.4,-0.1 -2.7,-0.7 -4.1,-0.9 -0.3,-0.1 -0.6,-0.3 -0.6,-0.6 0.3,-0.8 -0.3,-1.8 0.4,-2.7 z m -5.9,7.5 c -0.1,0.4 -0.4,0.5 -0.7,0.6 -0.1,-0.1 -0.2,-0.1 -0.2,-0.1 0.2,-0.4 0.4,-0.6 0.9,-0.5 z m 1.8,8 c -0.4,0.6 -0.7,0.8 -1.4,0.5 -1.1,-0.5 -2.3,-0.9 -3.6,-1.5 1.7,-1.5 3,-2.9 4.4,-4.4 1.3,-1.4 2.2,-3.1 3.1,-4.8 0.1,-0.2 0.1,-0.5 0.4,-0.5 0.3,0 0.3,0.3 0.4,0.4 1.7,1.7 1,3.2 0,4.9 -1.2,1.8 -2.1,3.7 -3.3,5.4 z m 124.7,447.2 c -0.7,0 -1.4,0.2 -2.2,-0.1 -0.1,-0.1 -0.3,-0.1 -0.1,-0.3 0,-0.1 0.2,0 0.3,0 1.3,0 2.6,0.1 3.9,-0.2 0,0.1 0,0.2 0.1,0.3 -0.7,0.1 -1.3,0.2 -2,0.3 z m 16.1,-29.8 c -0.8,-0.1 -1,-0.5 -1,-1.3 0,-2.6 -0.3,-5.2 -0.7,-7.9 -0.1,-1.1 0.4,-2.1 0.7,-3.1 0.2,-0.5 0.4,-1 0.5,-1.4 0,-0.2 -0.1,-0.4 0.1,-0.5 0.3,-0.2 0.3,0.1 0.3,0.3 0,0.3 0,0.6 0,0.9 v 0 c 0.2,1.9 0.4,3.8 -0.3,5.7 -0.5,1.4 -0.2,2.9 0.2,4.3 0.2,0.7 0.3,1.3 0.4,2 0,0 0,0.1 0,0.1 0,0.1 0.1,0.3 0.1,0.4 0.2,0.9 0.3,1.7 0.3,2.6 0.3,1 -0.5,1.3 -1.1,1.7 -0.2,0.4 -0.5,0.7 -0.9,0.9 0,0 0,0 0,0 v 0 c 0,0 0,0 0,0 -0.1,0.4 -0.1,0.8 -0.5,1.1 -0.1,-0.6 0.2,-0.9 0.5,-1.1 0,0 0,0 0,0 0,0 0,0 0,0 0.1,-0.5 0.3,-1 0.7,-1.3 0.4,-0.8 0.7,-1.6 0.9,-2.4 0,-0.2 -0.1,-0.6 -0.2,-1 z m -17.6,17.9 c 0.1,0 0.2,0.2 0.2,0.2 -0.1,0.1 -0.2,0.2 -0.3,0.4 0,-0.2 -0.1,-0.2 -0.1,-0.3 0,-0.2 0,-0.4 0.2,-0.3 z m 0.1,6.9 c 0.7,-0.4 0.8,-1 0.7,-1.7 -0.1,-1.2 0.5,-2.2 1.4,-2.9 1.8,-1.5 3.7,-3 5.5,-4.6 1.1,-1 1.9,-2.2 2.2,-3.7 0.3,-1.4 1,-2.5 2.4,-3 1,-0.4 1.8,-1.2 2.6,-2 0.1,-0.3 0.3,-0.6 0.7,-0.6 -0.1,0.5 -0.2,0.9 -0.4,1.3 -0.2,0.8 -0.8,1.4 -1.4,1.8 -1.9,1.3 -2.8,3.3 -3.6,5.3 -0.4,1 -1,1.8 -1.9,2.4 -2.5,1.7 -4.3,3.8 -5.2,6.7 -0.4,1.4 -1.2,2.2 -2.8,2.1 -0.7,0 -1.4,0.2 -2.3,0.3 0.2,-0.7 0.3,-1.3 0.5,-2 0.5,0.3 0.9,1 1.6,0.6 z M 298.2,515.7 c -2.2,-3.9 -3.8,-8.1 -4.9,-12.5 -0.7,-3 -1.8,-5.8 -2.9,-8.6 -1,-2.5 -1.3,-5.3 -1.9,-7.9 -1.1,-4.9 -1,-9.9 -1.7,-14.7 -0.5,-3.4 -1.4,-6.7 -2.9,-9.8 -2.2,-4.6 -3.6,-9.5 -4.2,-14.6 -0.2,-2 -0.7,-4 -1,-6 -0.5,-3.4 -1.2,-6.8 -1.9,-10.2 0,-0.2 -0.1,-0.4 0,-0.5 1.2,-1.6 1.4,-3.5 1.4,-5.5 0,-0.4 0.3,-0.4 0.5,-0.6 1.4,-0.7 1.7,-2.1 0.5,-3.2 -1,-0.9 -1.9,-1.9 -3.2,-2.4 -0.7,-0.2 -1.5,-0.7 -0.8,-1.8 0.3,-0.5 0.2,-1.3 0.2,-1.9 0.2,-5.9 0.1,-11.8 0.5,-17.7 0.3,-4.9 1.2,-9.8 3,-14.5 1.9,-5 4.3,-9.9 5,-15.3 0.2,-1.6 0.3,-3 -0.4,-4.6 -1.3,-3 -1.7,-6.3 -1.9,-9.6 0,-0.7 0.6,-1.1 1.3,-0.7 2.8,1.7 5.7,3.3 8.2,5.4 1,0.8 1.6,1.9 2.2,3 0.9,1.4 1.9,2.7 3.3,3.6 1,0.5 2,0.9 3,1.4 0.2,0.1 0.3,0.1 0.5,0.2 0.3,0 0.5,0.1 0.8,0.4 -0.4,0 -0.7,0.1 -1,-0.2 -0.2,-0.1 -0.5,-0.1 -0.7,-0.2 -1.2,-0.2 -2.2,-0.8 -3.2,-1.4 -1.9,-0.6 -3.9,-1.1 -5.7,-1.9 -1.6,-0.7 -2.6,0 -2.7,1.8 -0.1,3 0.7,5.7 1.7,8.4 0.3,0.7 0.7,1.2 1.3,1.6 0.8,0.4 1.2,1.1 1.4,2 0.3,1.4 0.8,2.7 1.2,4.1 0.3,1.1 0.8,2.1 1.6,3 0.2,0.2 0.4,0.4 0.5,0.6 1.4,4 4.1,7.4 5.5,11.5 0.3,0.9 0.7,1.9 1.1,2.8 0.2,0.4 0.2,0.7 -0.2,1 -1.6,1.2 -2.6,2.7 -3.3,4.6 -0.6,1.7 -1.7,3.3 -1.7,5.3 -1.2,-0.5 -2,-1.3 -2.8,-2.1 -2.3,-2.4 -4.7,-4.8 -6.6,-7.5 -0.4,-0.6 -1,-0.7 -1.7,-0.5 -1.3,0.4 -2.4,1.2 -3.4,2.1 -0.7,0.6 -0.6,1.5 -0.6,2.4 0.4,3.8 0.8,7.5 1.3,11.3 0.1,0.9 0.5,1.3 1.2,1.8 1.8,1.3 3.9,2.3 5.2,4.3 1.2,1.7 2.9,3 4.9,3.7 0.6,0.2 1.2,0.7 1.8,1 0.3,0 0.7,0.1 0.9,0.4 1.3,0 2.4,0.3 3.6,0.9 1.7,0.8 3.6,1 5.5,0.8 4.1,-0.4 8.1,0.6 12,1.5 0.2,-0.1 0.4,0 0.6,0.3 -0.6,0.1 -1.2,0.1 -1.7,-0.1 -2.9,-0.3 -5.8,0 -8.6,-0.7 -1.4,-0.3 -2.9,0.1 -4.4,0.3 -2.1,0.3 -4,-0.2 -5.6,-1.6 -0.5,-0.5 -1.1,-0.9 -1.8,-1.2 -0.3,0 -0.7,-0.1 -1,-0.3 -1.3,-0.2 -2.4,-0.6 -3.3,-1.5 -0.4,-0.4 -0.8,-0.4 -1.3,-0.3 -1.6,0.4 -3,0.1 -4.4,-1 -1.1,-0.8 -2.4,-1.2 -3.4,-2.2 -0.2,0.1 -0.2,0.3 -0.3,0.5 0.3,1.6 0.3,3.1 -1.1,4.2 -0.3,0.3 -0.3,0.7 -0.2,1 0.1,1.1 0.3,2.3 0.4,3.4 0,0.4 0.2,0.9 0.1,1.3 -0.4,1.3 -0.2,2.4 1,3.2 0.4,0.3 0.5,1.1 0.8,1.6 1.7,2.9 3.7,5.7 5.3,8.7 0.5,0.9 1.1,1.6 2,2 2.5,1 3.3,3.3 4.3,5.4 0.6,1.2 0.8,2.5 1.3,3.8 -0.7,0.1 -1.3,-0.2 -1.8,-0.4 -2.5,-0.9 -4.5,-2.6 -6.8,-3.9 -0.5,-0.3 -1,-0.8 -1.7,-0.5 -0.3,0.1 -0.4,-0.3 -0.6,-0.5 -0.7,-0.9 -1.5,-1.8 -2.2,-2.7 -0.2,0.1 -0.2,0.3 -0.3,0.5 0.2,0.5 0.4,1 0.6,1.6 0.6,1.6 1.2,3.1 0.9,5 -0.5,3.3 1.2,6.2 2.9,8.8 1.2,1.9 2.4,3.7 3.4,5.6 0.8,1.4 1.9,2.6 3.4,3.4 1.1,0.6 1.8,1.6 2.5,2.6 0.8,1.2 1.5,2.5 2,3.9 0.7,2.1 2.1,3.3 4.3,3.8 2.5,0.6 4.9,1.4 7.3,2.1 0.6,0.2 1.2,0.5 1.8,0.9 -0.3,0 -0.5,0 -0.8,0 -3.2,-0.2 -6.1,1 -9,2.3 -1.3,0.6 -2.6,1.1 -3.8,2 -1.1,0.9 -2,1.9 -1.5,3.5 0.4,1.5 1.6,2.5 3.1,2.6 3.1,0.3 6.1,1.3 9.1,2.1 3,0.8 6,0.2 9,-0.1 1.1,-0.1 2.3,-0.5 3.5,0.1 -0.9,1 -1.7,2.1 -2.7,2.9 -1.9,1.5 -3.7,3.1 -5.4,4.8 -1.3,1.3 -2.7,2.4 -4.3,3.2 -2.7,1.5 -5.3,3.1 -8.1,4.4 -0.6,0.3 -1.2,0.6 -1.7,1 -0.8,0.7 -1.2,0.5 -1.6,-0.3 z m 4.6,8.2 c -0.2,0.1 -0.4,0 -0.5,-0.2 -0.4,-1.3 -0.8,-2.6 -1.3,-4 0,-0.1 0.1,-0.2 0.3,-0.5 0.5,1.5 1,2.8 1.5,4.2 0.2,0.2 0.3,0.4 0,0.5 z m 113.7,109 c 1.6,2 3.2,4 4.8,6 0.4,0.2 0.6,0.6 0.9,0.9 0.3,0.3 0.6,0.6 0.9,0.9 0.2,0.3 0.5,0.6 0.7,0.9 v 0 c 0.2,0.1 0.4,0.4 0.3,0.4 -0.3,0.2 -0.4,-0.2 -0.6,-0.4 v 0 c -0.2,-0.2 -0.4,-0.5 -0.7,-0.7 -0.3,-0.3 -0.6,-0.6 -0.9,-0.9 -0.3,-0.3 -0.6,-0.6 -0.9,-0.9 -3.2,-2.7 -6.2,-5.6 -9.1,-8.7 -2.7,-2.8 -5.6,-5.3 -8.8,-7.5 -5.7,-4.1 -11.2,-8.6 -16.7,-12.9 -4.3,-3.3 -8.8,-6.2 -13.6,-8.5 -5,-2.4 -9.8,-5 -14.3,-8.2 -1.4,-1 -3,-1.6 -4.2,-2.9 -0.4,-0.5 -1.2,-0.6 -1.9,-0.8 -1.3,-0.4 -2.3,-1.1 -3.3,-2.1 -2.8,-2.7 -5.1,-5.9 -8.4,-8 -2.3,-1.5 -3.4,-3.9 -4.8,-6.1 -7.9,-12.2 -16,-24.3 -23.4,-36.9 -3.3,-5.5 -6.4,-11.1 -8.5,-17.2 -0.3,-0.7 -0.2,-1 0.6,-1.1 2.5,-0.5 4.8,-1.2 7.2,-2.1 2.2,-0.9 4.6,-1.3 6.9,-1.9 0.3,-0.1 0.6,-0.1 0.6,0.3 0.2,2.8 1.9,4.9 3.4,7.1 5,6.9 10.5,13.3 16.6,19.2 1.7,1.6 3.5,3 5.2,4.6 1.1,1 2.4,1.5 3.7,2.2 3.6,2 6.8,4.6 9.6,7.7 4,4.5 7.4,9.4 11.2,14 1.6,2 3,4.3 2.8,7.1 0,0.6 0.1,1.2 0.5,1.6 0.5,0.6 0.2,1.2 0,1.8 -0.7,1.8 -2.2,3 -3.6,4.2 -2.6,2.2 -3.4,4.9 -3.1,8.2 0.1,1.1 0.6,2 1.5,2.7 3.1,2.5 6.6,4.5 9.9,6.8 3,2.1 6.1,3.7 9.5,5 6.9,2.7 12.5,7.2 18,12.1 4.6,4.2 8.2,9.3 12,14.1 z m 109.2,-43.5 c -0.1,0 -0.2,-0.1 -0.2,-0.2 -0.1,-0.1 0,-0.2 0.1,-0.2 0.2,0 0.3,0.1 0.3,0.2 0.1,0.1 -0.1,0.2 -0.2,0.2 z m -1.8,-6.9 c -3.1,-4.1 -6.3,-8.1 -9.3,-12.2 -1.2,-1.6 -2.8,-2.6 -4.3,-3.8 -2.8,-2 -5.8,-3.6 -8.7,-5.3 -3.9,-2.2 -7.5,-4.9 -10.7,-8 -3.1,-3.1 -5.3,-6.8 -8.3,-10 -1.8,-2 -2.3,-4.7 -3.4,-7.1 -0.2,-0.5 0.1,-0.6 0.4,-0.7 1.2,-0.3 2.3,-0.5 3.5,-0.1 4.7,1.4 8.2,4.6 11.3,8.1 4,4.6 8.2,9 12.3,13.6 0.8,0.9 1.5,1.9 2.1,3 1.3,2.6 3.3,4.5 5.6,6.3 4.1,3.2 8.1,6.6 10.6,11.4 0.8,1.5 2.1,2.6 3.2,3.9 1.3,1.6 1.8,3.6 2.6,5.7 -3,-1 -5.2,-2.5 -6.9,-4.8 z"
   inkscape:connector-curvature="0"
   style="fill:#010101" />
			<path
   id="XMLID_69_"
   class="st1"
   d="m 231.4,341.6 c -0.1,-0.5 -0.1,-1.1 0,-1.5 -0.2,0.5 -0.2,1 0,1.5 z"
   inkscape:connector-curvature="0"
   style="fill:#010101" />
			<path
   id="XMLID_70_"
   class="st1"
   d="m 235.3,296.5 c 0.1,1.2 -0.1,2.3 -1,3.5 -1.5,2.2 -2.7,4.6 -2.6,7.5 0,1.1 0.3,2.2 0.3,3.3 0,4.8 0.6,9.4 2.1,13.9 1,3.2 1.2,6.5 -0.8,9.6 -1.1,1.7 -1.6,3.8 -1.9,5.8 0,1.1 0.2,2.1 1,3 0.8,1 1.6,1.4 2.8,1.3 0.9,-0.7 1.7,-1.6 2.5,-2.3 2.5,-2.3 5.3,-4.2 8.2,-5.8 2.6,-1.5 5.7,-2.1 8.5,-3.3 5,-2.1 10.1,-4 15,-6.4 -0.1,-0.1 -0.3,-0.1 -0.4,-0.2 -3.9,1.2 -7.7,2.6 -11.6,3.6 -5.8,1.5 -11.1,4.1 -15.9,7.5 -1,0.8 -1.2,0.6 -1.4,-0.7 0,-0.2 0,-0.4 0,-0.7 0,-3.6 -0.8,-7.1 -2.3,-10.5 -0.8,-1.9 -1.6,-3.9 -2.1,-5.9 -0.9,-3.7 -1.7,-7.4 -1.9,-11.2 -0.2,-2.4 0.2,-4.4 1.8,-6.2 0.6,-0.6 0.8,-1.4 0.9,-2.2 0.2,-2.5 1.1,-4.8 2,-7.1 0.3,-0.7 0.4,-1.4 0.4,-2.1 0.1,-1.9 -0.6,-3.5 -1.6,-5 -0.3,-0.4 -0.2,-1.5 -0.9,-1.2 -0.5,0.2 0,1.1 0.3,1.5 0.9,1.3 0.8,2.5 0.2,3.8 -1.3,2.1 -1.7,4.2 -1.6,6.5 z"
   inkscape:connector-curvature="0"
   style="fill:#010101" />
			<path
   id="XMLID_71_"
   class="st1"
   d="m 229.9,283.5 c 0.1,0.3 0.3,0.6 0.1,0.9 -0.7,1 -0.4,2 0,2.9 0.4,1.3 1,2.5 1.5,3.8 0.3,0.7 0.6,1.3 1.4,1.3 0.9,0 1.2,-0.7 1.3,-1.5 0.1,-0.7 -0.1,-1.4 0.3,-2 0.5,-0.8 0.6,-1.6 0.2,-2.5 -0.3,-0.6 -0.2,-1.7 -1.2,-1.6 -1,0.2 -0.7,1.2 -0.7,1.9 0.2,0.3 0.2,0.7 0.2,1 0,0.1 0,0.3 -0.2,0.3 -0.2,0 -0.3,-0.2 -0.2,-0.4 -0.1,-0.2 -0.2,-0.3 -0.2,-0.5 -0.5,-2.1 -0.8,-4.2 -1.9,-6.1 -0.2,-0.4 -0.2,-1 -0.8,-0.9 -0.6,0.2 -0.4,0.8 -0.3,1.2 0.1,0.8 0.3,1.5 0.5,2.2 z"
   inkscape:connector-curvature="0"
   style="fill:#010101" />
			<path
   id="XMLID_72_"
   class="st1"
   d="m 220.7,284 c 0.9,0 1.5,0.4 1.7,1.3 0,0.2 0.1,0.5 0.3,0.7 0.2,0.5 0.6,0.9 1.3,0.9 0.7,0 1,-0.5 1.2,-1.1 0.6,-1.9 0.6,-3.9 1,-5.6 0,-1.4 0.6,-1.9 1.5,-1.6 0.6,0.2 0.9,0.3 1.1,-0.3 0.2,-0.6 -0.1,-1.2 -0.7,-1.5 -1.3,-0.6 -3.6,0.5 -3.7,1.9 -0.1,1.5 -1,2.6 -1.3,3.9 -0.1,0.5 -0.4,0.4 -0.7,0.2 -0.6,-0.2 -1.1,-0.3 -1.7,0 -0.3,0.2 -0.6,0.3 -0.6,0.7 -0.1,0.6 0.3,0.6 0.6,0.5 z"
   inkscape:connector-curvature="0"
   style="fill:#010101" />
			<path
   id="XMLID_75_"
   class="st1"
   d="m 327,270 c 0,0.1 0.1,0.2 0.1,0.2 1.3,-0.8 2.7,-0.8 4.1,-0.9 1.6,-0.1 3.2,-0.4 4.6,-1.1 0.4,-0.2 1.2,0.4 1.4,-0.2 0.2,-0.6 -0.8,-0.4 -1.1,-0.8 -1.6,-1.8 -3.7,-2.4 -6,-2.3 -0.4,0.2 -0.9,0.3 -1.3,0.5 -0.4,0.3 -1.2,0.7 -0.7,1.2 0.7,0.7 0.2,1.2 -0.1,1.7 -0.3,0.7 -0.6,1.2 -1,1.7 z m 7,-2.3 c -0.8,0.7 -1.3,0.8 -2.4,0.8 0.5,-1.9 0.6,-1.9 2.4,-0.8 z m -5.6,1.4 c 0.1,-0.2 0.2,-0.4 0.5,-0.5 0.2,0.1 0.3,0.2 0.3,0.4 -0.1,0.3 -0.3,0.4 -0.5,0.4 -0.2,0 -0.3,-0.1 -0.3,-0.3 z"
   inkscape:connector-curvature="0"
   style="fill:#010101" />
			<path
   id="XMLID_77_"
   class="st1"
   d="m 215.3,285.9 c 1,0.6 1,1.8 1.6,2.7 0.7,1 1.8,0.8 2.3,-0.3 0.2,-0.5 0.3,-1.1 0.1,-1.6 -0.1,-0.5 -0.3,-0.9 -0.1,-1.4 0.1,-0.7 0.2,-1.6 -0.7,-1.8 -0.8,-0.3 -1.4,0.4 -1.8,1 -0.3,0.5 -0.5,1 -1.1,1 -0.2,-0.1 -0.6,0.2 -0.3,0.4 z"
   inkscape:connector-curvature="0"
   style="fill:#010101" />
			<path
   id="XMLID_78_"
   class="st1"
   d="m 332.6,262.2 c -1.2,0.1 -2.3,0.5 -3.4,0.9 -1,0.4 -2.1,0.5 -3,1.1 -0.4,0.3 -0.9,0.5 -0.6,1.1 0.2,0.5 0.7,0.4 1.2,0.3 0.4,-0.1 0.8,-0.2 1.2,-0.3 0.1,-0.1 0.2,-0.1 0.3,-0.1 0.5,-0.1 0.9,-0.3 1.4,-0.4 2.1,-0.8 4.2,-1.3 6.6,-0.2 -0.7,-1.7 -2.2,-2.5 -3.7,-2.4 z"
   inkscape:connector-curvature="0"
   style="fill:#010101" />
			<path
   id="XMLID_79_"
   class="st1"
   d="m 272,325.4 c 0.2,0 0.4,-0.1 0.6,-0.1 5.4,-1.8 9.9,-5.1 14.5,-8.2 -0.1,-0.2 -0.3,-0.2 -0.5,-0.3 -0.5,0.2 -0.9,0.4 -1.4,0.7 -4.6,2.6 -9,5.5 -13.8,7.7 0.2,0.1 0.4,0.1 0.6,0.2 z"
   inkscape:connector-curvature="0"
   style="fill:#010101" />
			<path
   id="XMLID_80_"
   class="st1"
   d="m 308,303.7 c -0.1,-0.1 -0.2,-0.1 -0.2,-0.2 -3.3,1 -6,2.9 -9,4.5 -1.5,0.8 -2.9,1.8 -4.2,3 0.1,0.1 0.2,0.2 0.3,0.3 4.3,-2.6 8.9,-4.8 13.1,-7.6 z"
   inkscape:connector-curvature="0"
   style="fill:#010101" />
			<path
   id="XMLID_81_"
   class="st1"
   d="m 350.6,286.2 c 0.7,0.1 1.4,0.3 2,0.8 0.4,0.3 1.3,0.2 1.2,-0.2 -0.3,-0.9 0.2,-1.2 0.6,-1.7 0.1,-0.1 0.1,-0.3 0.1,-0.4 0,-2.2 0,-2.3 2.2,-3.1 0.7,-0.3 0.9,-0.2 1,0.7 0.1,1.1 -0.7,1.6 -0.9,2.5 -0.1,0.5 -0.2,1 0.4,1.2 0.5,0.2 0.9,0 1.1,-0.4 0.5,-1.2 1.5,-1.9 2.4,-2.6 0.8,-0.6 1.1,-1.5 0.8,-2.4 -0.4,-1 -1.2,-1.5 -2.3,-1.4 -1,-0.1 -1.9,0.4 -2.7,0.9 -1.3,0.8 -3.3,0.7 -3.9,2.6 0,0.1 -0.2,0.2 -0.3,0.2 -1.5,-0.1 -1.8,1.1 -2.2,2.2 -0.4,0.7 -0.2,1.1 0.5,1.1 z"
   inkscape:connector-curvature="0"
   style="fill:#010101" />
		</g>
		<g
   id="XMLID_95_">
			<path
   id="XMLID_152_"
   class="st2"
   d="m 385.9,225 c -0.1,-1.5 0.7,-2.4 1.9,-2.9 1.2,-0.5 2.6,-1.3 3.9,-0.1 0.3,0.3 0.5,0.3 0.7,0 0.8,-1.1 1.6,-2.3 2.2,-3.5 0.3,-0.6 0.2,-1 -0.6,-1.1 -1.8,-0.2 -3.4,-0.7 -5.1,-1.3 -3.9,-1.4 -7.7,-3 -11.7,-4.2 -6.3,-1.9 -11.9,-5.2 -17.4,-8.9 -2.3,-1.6 -4.1,-3.6 -5.9,-5.8 -0.2,-0.3 -0.6,-0.6 -0.3,-1 0.4,-0.4 0.7,0 1,0.2 0.6,0.4 1.1,0.8 1.6,1.3 4.7,4.3 10.1,7.4 15.9,9.8 5,2.1 10.3,3.4 15.5,5.1 1.9,0.6 3.8,1.3 5.9,1.4 2.4,0.1 1.8,0.6 2.4,-1.7 0.1,-0.4 0.2,-0.7 0.3,-1.1 0.6,-2.9 1.4,-5.7 0.9,-8.7 -0.1,-0.6 -0.2,-1.3 -0.7,-1.7 -2.8,-2.8 -4.9,-6.1 -8.3,-8.4 -4.7,-3 -9.6,-4.5 -15.1,-4 -4,0.4 -8.1,0.5 -12.1,1.5 -0.2,-0.1 -0.5,0 -0.7,-0.2 1,-0.8 2.2,-1.1 3.5,-1.3 1.9,-0.2 3.7,-0.5 5.5,-1 5.7,-1.3 11.3,-0.9 16.6,1.2 3.8,1.5 7.2,3.6 9.7,6.9 0.1,0.1 0.2,0.1 0.3,0.1 0.1,-0.9 -0.3,-1.6 -0.6,-2.3 -1,-1.9 -2,-3.8 -3.3,-5.6 -0.3,-0.4 -0.5,-0.7 -0.8,-1 -1.7,-1.6 -3.5,-3.1 -5.3,-4.7 -0.9,-0.8 -1.9,-1.3 -3.1,-1.7 -11.9,-3.3 -24.9,1.5 -31.8,11.7 -2.3,3.4 -3.9,7 -4.5,11.1 -0.1,0.3 -0.1,0.6 -0.2,0.9 -0.6,3.2 -0.6,6.5 0,9.8 1.1,6 3.8,10.9 9.4,13.8 0.7,0.4 1.3,0.6 2.1,0 -1.1,-0.8 -2.2,-1.6 -3.2,-2.5 -3.6,-3.6 -5.7,-8.1 -7.7,-12.7 -0.5,-1.1 -0.7,-2.4 -0.5,-3.8 0.9,0.9 0.9,2 1.4,2.9 0.2,1.2 0.8,2.3 1.4,3.3 1.9,3.6 4.2,6.9 7.4,9.5 2.1,1.6 4.3,3 6.5,4.5 0.4,0.2 0.8,0.3 1.2,0.4 6.6,1.5 13,0.6 19.3,-1.2 2.5,-0.6 2.5,-0.6 2.4,-3 z"
   inkscape:connector-curvature="0"
   style="fill:#f15a29" />
			<path
   id="XMLID_161_"
   class="st3"
   d="m 309.5,510.8 c 1.6,-0.9 3,-1.9 4.3,-3.2 1.7,-1.7 3.5,-3.3 5.4,-4.8 1,-0.8 1.9,-1.8 2.7,-2.9 -1.2,-0.6 -2.4,-0.2 -3.5,-0.1 -3,0.3 -6,1 -9,0.1 -3,-0.8 -6,-1.8 -9.1,-2.1 -1.5,-0.1 -2.6,-1.1 -3.1,-2.6 -0.5,-1.6 0.4,-2.6 1.5,-3.5 1.1,-0.9 2.5,-1.4 3.8,-2 2.8,-1.3 5.7,-2.5 9,-2.3 0.3,0 0.5,0 0.8,0 -0.6,-0.4 -1.2,-0.7 -1.8,-0.9 -2.4,-0.7 -4.8,-1.5 -7.3,-2.1 -2.2,-0.5 -3.6,-1.7 -4.3,-3.8 -0.5,-1.4 -1.1,-2.7 -2,-3.9 -0.7,-1 -1.4,-2 -2.5,-2.6 -1.5,-0.8 -2.6,-1.9 -3.4,-3.4 -1.1,-1.9 -2.3,-3.8 -3.4,-5.6 -1.7,-2.7 -3.4,-5.5 -2.9,-8.8 0.3,-1.9 -0.3,-3.4 -0.9,-5 -0.2,-0.5 -0.4,-1 -0.6,-1.6 0.1,-0.2 0,-0.4 0.3,-0.5 0.7,0.9 1.5,1.8 2.2,2.7 0.2,0.2 0.3,0.6 0.6,0.5 0.7,-0.3 1.2,0.2 1.7,0.5 2.2,1.3 4.3,2.9 6.8,3.9 0.6,0.2 1.1,0.6 1.8,0.4 -0.4,-1.3 -0.7,-2.6 -1.3,-3.8 -1,-2.1 -1.9,-4.4 -4.3,-5.4 -0.9,-0.4 -1.6,-1.1 -2,-2 -1.6,-3 -3.6,-5.8 -5.3,-8.7 -0.3,-0.5 -0.3,-1.4 -0.8,-1.6 -1.3,-0.9 -1.4,-1.9 -1,-3.2 0.1,-0.4 0,-0.9 -0.1,-1.3 -0.1,-1.1 -0.3,-2.3 -0.4,-3.4 0,-0.4 -0.1,-0.8 0.2,-1 1.4,-1.1 1.4,-2.6 1.1,-4.2 0.1,-0.2 0,-0.4 0.3,-0.5 1,0.9 2.3,1.4 3.4,2.2 1.4,1 2.8,1.4 4.4,1 0.5,-0.1 0.9,-0.1 1.3,0.3 0.9,0.9 2.1,1.3 3.3,1.5 0.3,0.3 0.6,0.3 1,0.3 0.7,0.3 1.3,0.7 1.8,1.2 1.6,1.5 3.4,1.9 5.6,1.6 1.4,-0.2 2.9,-0.7 4.4,-0.3 2.9,0.6 5.8,0.4 8.6,0.7 0.5,0.2 1.1,0.2 1.7,0.1 -0.2,-0.3 -0.4,-0.4 -0.6,-0.3 -4,-0.9 -7.9,-2 -12,-1.5 -1.9,0.2 -3.8,0 -5.5,-0.8 -1.2,-0.5 -2.3,-0.9 -3.6,-0.9 -0.3,-0.2 -0.6,-0.3 -0.9,-0.4 -0.6,-0.3 -1.2,-0.8 -1.8,-1 -2.1,-0.7 -3.7,-2 -4.9,-3.7 -1.4,-1.9 -3.4,-3 -5.2,-4.3 -0.7,-0.5 -1.1,-0.9 -1.2,-1.8 -0.5,-3.7 -1,-7.5 -1.3,-11.3 -0.1,-0.9 -0.1,-1.8 0.6,-2.4 1,-0.9 2.1,-1.7 3.4,-2.1 0.7,-0.2 1.2,-0.1 1.7,0.5 1.9,2.8 4.3,5.1 6.6,7.5 0.8,0.8 1.6,1.6 2.8,2.1 0.1,-2 1.1,-3.6 1.7,-5.3 0.7,-1.9 1.7,-3.4 3.3,-4.6 0.4,-0.3 0.4,-0.6 0.2,-1 -0.4,-0.9 -0.7,-1.8 -1.1,-2.8 -1.4,-4 -4.1,-7.5 -5.5,-11.5 -0.1,-0.2 -0.3,-0.4 -0.5,-0.6 -0.8,-0.9 -1.3,-1.9 -1.6,-3 -0.4,-1.4 -0.9,-2.7 -1.2,-4.1 -0.2,-0.9 -0.6,-1.5 -1.4,-2 -0.6,-0.3 -1,-0.9 -1.3,-1.6 -1.1,-2.7 -1.9,-5.5 -1.7,-8.4 0.1,-1.8 1,-2.5 2.7,-1.8 1.9,0.8 3.8,1.2 5.7,1.9 1,0.6 2,1.2 3.2,1.4 0.2,0.1 0.5,0.1 0.7,0.2 0.3,0.3 0.6,0.2 1,0.2 -0.3,-0.3 -0.5,-0.4 -0.8,-0.4 -0.2,-0.1 -0.3,-0.1 -0.5,-0.2 -1,-0.5 -2,-0.9 -3,-1.4 -1.4,-0.9 -2.4,-2.2 -3.3,-3.6 -0.7,-1.1 -1.2,-2.2 -2.2,-3 -2.5,-2.1 -5.4,-3.7 -8.2,-5.4 -0.6,-0.4 -1.3,0 -1.3,0.7 0.2,3.3 0.6,6.6 1.9,9.6 0.7,1.6 0.6,3 0.4,4.6 -0.7,5.4 -3.1,10.3 -5,15.3 -1.8,4.7 -2.7,9.5 -3,14.5 -0.4,5.9 -0.4,11.8 -0.5,17.7 0,0.7 0.1,1.4 -0.2,1.9 -0.6,1.1 0.1,1.5 0.8,1.8 1.3,0.5 2.3,1.5 3.2,2.4 1.2,1.1 0.9,2.5 -0.5,3.2 -0.2,0.1 -0.6,0.1 -0.5,0.6 0,1.9 -0.2,3.8 -1.4,5.5 -0.1,0.1 0,0.4 0,0.5 0.6,3.4 1.4,6.7 1.9,10.2 0.3,2 0.7,4 1,6 0.6,5.1 2,10 4.2,14.6 1.5,3.1 2.3,6.4 2.9,9.8 0.8,4.9 0.7,9.9 1.7,14.7 0.6,2.6 0.8,5.4 1.9,7.9 1.2,2.8 2.2,5.7 2.9,8.6 1.1,4.4 2.7,8.5 4.9,12.5 0.4,0.8 0.8,0.9 1.5,0.4 0.5,-0.4 1.1,-0.7 1.7,-1 2.9,-1.4 5.5,-3.1 8.2,-4.5 z"
   style="fill:#ee008a;fill-opacity:1"
   inkscape:connector-curvature="0" />
		</g>
	</g>
</g>
</svg>