<?xml version="1.0" encoding="UTF-8" standalone="no"?>
<!-- Generator: Adobe Illustrator 21.0.0, SVG Export Plug-In . SVG Version: 6.00 Build 0)  -->

<svg
   xmlns:dc="http://purl.org/dc/elements/1.1/"
   xmlns:cc="http://creativecommons.org/ns#"
   xmlns:rdf="http://www.w3.org/1999/02/22-rdf-syntax-ns#"
   xmlns:svg="http://www.w3.org/2000/svg"
   xmlns="http://www.w3.org/2000/svg"
   xmlns:sodipodi="http://sodipodi.sourceforge.net/DTD/sodipodi-0.dtd"
   xmlns:inkscape="http://www.inkscape.org/namespaces/inkscape"
   version="1.1"
   id="Layer_1"
   x="0px"
   y="0px"
   width="1544.0541"
   height="1262.8"
   viewBox="0 0 1544.0541 1262.8"
   xml:space="preserve"
   sodipodi:docname="act.svg"
   inkscape:version="0.92.3 (2405546, 2018-03-11)"><metadata
   id="metadata497"><rdf:RDF><cc:Work
       rdf:about=""><dc:format>image/svg+xml</dc:format><dc:type
         rdf:resource="http://purl.org/dc/dcmitype/StillImage" /><dc:title></dc:title></cc:Work></rdf:RDF></metadata><defs
   id="defs495" /><sodipodi:namedview
   pagecolor="#ffffff"
   bordercolor="#666666"
   borderopacity="1"
   objecttolerance="10"
   gridtolerance="10"
   guidetolerance="10"
   inkscape:pageopacity="0"
   inkscape:pageshadow="2"
   inkscape:window-width="1920"
   inkscape:window-height="1031"
   id="namedview493"
   showgrid="false"
   inkscape:zoom="0.31011683"
   inkscape:cx="18.342138"
   inkscape:cy="-110.27748"
   inkscape:window-x="1366"
   inkscape:window-y="0"
   inkscape:window-maximized="1"
   inkscape:current-layer="g1459"
   fit-margin-top="0"
   fit-margin-left="0"
   fit-margin-right="0"
   fit-margin-bottom="0" />
<style
   type="text/css"
   id="style2">
	.st0{fill-rule:evenodd;clip-rule:evenodd;fill:#B7ECF0;}
	.st1{fill-rule:evenodd;clip-rule:evenodd;fill:#86B2B5;}
	.st2{fill-rule:evenodd;clip-rule:evenodd;fill:#AADCE0;}
	.st3{fill-rule:evenodd;clip-rule:evenodd;fill:#95C4C7;}
	.st4{fill-rule:evenodd;clip-rule:evenodd;fill:#729EA1;}
	.st5{fill-rule:evenodd;clip-rule:evenodd;fill:#A9DADE;}
	.st6{fill-rule:evenodd;clip-rule:evenodd;fill:#FCD1C0;}
	.st7{fill-rule:evenodd;clip-rule:evenodd;fill:#5D97A6;}
	.st8{fill-rule:evenodd;clip-rule:evenodd;fill:#BFA675;}
	.st9{fill-rule:evenodd;clip-rule:evenodd;fill:#AB9363;}
	.st10{fill-rule:evenodd;clip-rule:evenodd;fill:#71B2C2;}
	.st11{fill-rule:evenodd;clip-rule:evenodd;fill:#F7C6B2;}
	.st12{fill-rule:evenodd;clip-rule:evenodd;fill:#A18262;}
	.st13{fill-rule:evenodd;clip-rule:evenodd;fill:#C49B72;}
	.st14{fill-rule:evenodd;clip-rule:evenodd;fill:#D6AD85;}
	.st15{fill-rule:evenodd;clip-rule:evenodd;fill:#856B51;}
	.st16{fill-rule:evenodd;clip-rule:evenodd;fill:#735139;}
	.st17{fill-rule:evenodd;clip-rule:evenodd;fill:#F77620;}
	.st18{fill-rule:evenodd;clip-rule:evenodd;fill:#FF9E5E;}
	.st19{fill-rule:evenodd;clip-rule:evenodd;fill:#292929;}
	.st20{fill-rule:evenodd;clip-rule:evenodd;fill:#C26425;}
	.st21{fill-rule:evenodd;clip-rule:evenodd;fill:#333333;}
	.st22{fill-rule:evenodd;clip-rule:evenodd;fill:#4D4D4D;}
	.st23{fill-rule:evenodd;clip-rule:evenodd;fill:#696969;}
	.st24{fill-rule:evenodd;clip-rule:evenodd;fill:#FFFFFF;}
	.st25{fill-rule:evenodd;clip-rule:evenodd;fill:#E6E6E6;}
	.st26{fill-rule:evenodd;clip-rule:evenodd;fill:#298787;}
	.st27{fill-rule:evenodd;clip-rule:evenodd;fill:#B3B3B3;}
	.st28{fill-rule:evenodd;clip-rule:evenodd;fill:#CCCCCC;}
	.st29{fill-rule:evenodd;clip-rule:evenodd;fill:#999999;}
	.st30{fill-rule:evenodd;clip-rule:evenodd;fill:#FC883A;}
</style>
<g
   id="g490"
   transform="translate(-370.9,493.15925)">
	
	
	
	
	
	
	
	<g
   id="g1459"
   transform="matrix(1.9562322,0,0,1.9562322,-354.66652,-735.95525)"><g
     id="g92">
		<g
   id="g46">
			<path
   id="path42"
   d="m 724.1,210.4 -22.5,-13 V 175 c 0,-3.6 -3,-6.6 -6.6,-6.6 -3.6,0 -6.6,3 -6.6,6.6 v 30 l 28.4,16.4 c 0.2,0.2 -1,-0.5 0.7,0.5 1.7,1 7.2,0.7 9,-2.4 1.8,-3.3 0.7,-7.3 -2.4,-9.1 z"
   class="st6"
   inkscape:connector-curvature="0"
   style="clip-rule:evenodd;fill:#fcd1c0;fill-rule:evenodd" />
			<path
   id="path44"
   d="m 695,168.4 c -3.6,0 -6.6,3 -6.6,6.6 v 19.6 c 0,0.9 3,1.7 6.6,1.7 3.6,0 6.6,-0.7 6.6,-1.7 V 175 c 0,-3.7 -3,-6.6 -6.6,-6.6 z"
   class="st7"
   inkscape:connector-curvature="0"
   style="clip-rule:evenodd;fill:#5d97a6;fill-rule:evenodd" />
		</g>
		<path
   id="path48"
   d="m 689.5,260.1 -9,5.2 v 9.8 l 18,10.4 9,-5.2 c 0.3,-11 -4.6,-12.4 -18,-20.2 z"
   class="st8"
   inkscape:connector-curvature="0"
   style="clip-rule:evenodd;fill:#bfa675;fill-rule:evenodd" />
		<path
   id="path50"
   d="m 680.5,265.3 v 9.8 l 18,10.4 c 0.3,-11 -4.5,-12.4 -18,-20.2 z"
   class="st9"
   inkscape:connector-curvature="0"
   style="clip-rule:evenodd;fill:#ab9363;fill-rule:evenodd" />
		<path
   id="path52"
   d="m 689.5,206.7 -4.5,2.6 -4.5,2.6 v 48.2 5.2 c 0,2 4,3.7 9,3.7 5,0 9,-1.6 9,-3.7 v -5.2 -34.3 -14 l -4.5,-2.6 z"
   class="st7"
   inkscape:connector-curvature="0"
   style="clip-rule:evenodd;fill:#5d97a6;fill-rule:evenodd" />
		<path
   id="path54"
   d="m 674.6,163.1 -8,4.6 c -5.9,3.4 -10.8,11.1 -10.8,17 v 50.7 l 13.1,7.5 c 9,-16.9 17.9,-56.5 26.9,-73.3 l -12.9,-7.4 c -2.6,-1.6 -6,-0.5 -8.3,0.9 z"
   class="st10"
   inkscape:connector-curvature="0"
   style="clip-rule:evenodd;fill:#71b2c2;fill-rule:evenodd" />
		<path
   id="path56"
   d="m 687.6,170.6 -8,4.6 c -5.9,3.4 -10.8,11.1 -10.8,17 v 50.7 l 29.6,-17 v -50.7 c 0.1,-6 -4.8,-8 -10.8,-4.6 z"
   class="st10"
   inkscape:connector-curvature="0"
   style="clip-rule:evenodd;fill:#71b2c2;fill-rule:evenodd" />
		<path
   id="path58"
   d="m 664.8,274.4 -9,5.2 v 9.8 l 18,10.4 9,-5.2 c 0.3,-11 -4.6,-12.5 -18,-20.2 z"
   class="st8"
   inkscape:connector-curvature="0"
   style="clip-rule:evenodd;fill:#bfa675;fill-rule:evenodd" />
		<path
   id="path60"
   d="m 655.8,279.5 v 9.8 l 18,10.4 c 0.3,-10.9 -4.5,-12.4 -18,-20.2 z"
   class="st9"
   inkscape:connector-curvature="0"
   style="clip-rule:evenodd;fill:#ab9363;fill-rule:evenodd" />
		<path
   id="path62"
   d="m 664.8,220.9 -4.5,2.6 -4.5,2.6 v 48.2 5.2 c 0,2 4,3.7 9,3.7 5,0 9,-1.6 9,-3.7 V 274.3 240 226 l -4.5,-2.6 z"
   class="st10"
   inkscape:connector-curvature="0"
   style="clip-rule:evenodd;fill:#71b2c2;fill-rule:evenodd" />
		<g
   id="g68">
			<path
   style="clip-rule:evenodd;fill:#7b4d52;fill-opacity:1;fill-rule:evenodd"
   id="path64"
   d="m 691.4,221.6 -22.5,-13 v -22.4 c 0,-3.6 -3,-6.6 -6.6,-6.6 -3.6,0 -6.6,3 -6.6,6.6 v 30 l 28.4,16.4 c 0.2,0.2 -1,-0.5 0.7,0.5 1.7,1 7.2,0.7 9,-2.4 1.9,-3.3 0.8,-7.3 -2.4,-9.1 z"
   class="st6"
   inkscape:connector-curvature="0" />
			<path
   id="path66"
   d="m 662.4,179.6 c -3.6,0 -6.6,3 -6.6,6.6 v 19.6 c 0,0.9 3,1.7 6.6,1.7 3.6,0 6.6,-0.7 6.6,-1.7 v -19.6 c -0.1,-3.6 -3,-6.6 -6.6,-6.6 z"
   class="st7"
   inkscape:connector-curvature="0"
   style="clip-rule:evenodd;fill:#5d97a6;fill-rule:evenodd" />
		</g>
		<path
   style="clip-rule:evenodd;fill:#7b4d52;fill-opacity:1;fill-rule:evenodd"
   id="path70"
   d="m 657.7,140.3 v 22.3 c 0,2 0.8,3.3 2,4 l 13.3,7.1 c 1.8,1.1 4.2,0.3 5.9,-0.7 l 5.7,-3.3 c 4.3,-2.4 7.7,-7.9 7.7,-12.2 v -22.3 l -13.4,-7.1 z"
   class="st11"
   inkscape:connector-curvature="0" />
		<path
   style="clip-rule:evenodd;fill:#7b4d52;fill-opacity:1;fill-rule:evenodd"
   id="path72"
   d="m 671.2,169.7 c 0,4.3 3.5,5.7 7.7,3.3 l 5.7,-3.3 c 4.3,-2.4 7.7,-7.9 7.7,-12.2 v -22.3 l -21.2,12.2 v 22.3 z"
   class="st6"
   inkscape:connector-curvature="0" />
		<g
   id="g84">
			<polygon
   id="polygon74"
   points="700.9,248.3 700.9,219.1 664.8,198.2 664.8,227.4 "
   class="st12"
   style="clip-rule:evenodd;fill:#a18262;fill-rule:evenodd" />
			<polygon
   id="polygon76"
   points="758.5,215 758.5,185.9 700.9,219.1 700.9,248.3 "
   class="st13"
   style="clip-rule:evenodd;fill:#c49b72;fill-rule:evenodd" />
			<polygon
   id="polygon78"
   points="700.9,219.1 758.5,185.9 722.3,165 664.8,198.2 "
   class="st14"
   style="clip-rule:evenodd;fill:#d6ad85;fill-rule:evenodd" />
			<polygon
   id="polygon80"
   points="684.9,239.1 684.9,209.9 680.7,207.5 680.7,236.7 "
   class="st15"
   style="clip-rule:evenodd;fill:#856b51;fill-rule:evenodd" />
			<polygon
   id="polygon82"
   points="684.9,209.9 742.5,176.7 738.3,174.3 680.7,207.5 "
   class="st13"
   style="clip-rule:evenodd;fill:#c49b72;fill-rule:evenodd" />
		</g>
		<path
   id="path86"
   d="m 685.9,128.2 c -7.4,-2.3 -18,-2.3 -24.1,3.1 -5.9,5.3 -7.6,5.9 -7.6,14.4 0,2.8 2.3,13.2 2.2,14.1 -0.6,7.4 9.6,1.1 9.6,-0.7 0,-5.1 3.2,-5.4 5,-3 1.4,1.7 5.5,-4.7 5.4,-6.4 0,-0.6 9.9,-2.8 11.6,-3 6.3,-1 7.3,-15.6 -2.1,-18.5 z"
   class="st16"
   inkscape:connector-curvature="0"
   style="clip-rule:evenodd;fill:#735139;fill-rule:evenodd" />
		<path
   id="path88"
   d="m 654.6,148.4 19.9,6.9 19.9,-6.1 V 137 c -0.1,-15.1 -43.5,-23 -39.8,11.4 z"
   class="st17"
   inkscape:connector-curvature="0"
   style="clip-rule:evenodd;fill:#f77620;fill-rule:evenodd" />
		<path
   id="path90"
   d="m 694.3,149.2 -19.9,6.1 c 17.8,7.7 34.1,-0.2 19.9,-6.1 z"
   class="st18"
   inkscape:connector-curvature="0"
   style="clip-rule:evenodd;fill:#ff9e5e;fill-rule:evenodd" />
	</g><g
     id="g156">
		
		<path
   id="path96"
   d="m 571.6,663.5 c -22.1,12.9 -40,41.2 -40,63.3 0,11 4.5,18.4 11.7,21.4 v 0 l 34.5,19.9 56.6,-89.6 -30.6,-17.7 c -7.3,-5.5 -19,-5 -32.2,2.7 z"
   class="st19"
   inkscape:connector-curvature="0"
   style="clip-rule:evenodd;fill:#292929;fill-rule:evenodd" />
		<path
   id="path98"
   d="m 907.8,502.2 c -22.1,12.9 -40,41.2 -40,63.3 0,11 4.5,18.4 11.7,21.4 L 914,606.8 970.6,517.2 940,499.5 c -7.3,-5.5 -19,-5 -32.2,2.7 z"
   class="st19"
   inkscape:connector-curvature="0"
   style="clip-rule:evenodd;fill:#292929;fill-rule:evenodd" />
		<polygon
   id="polygon100"
   points="510.1,591.6 700.6,701.6 700.6,481.6 510.1,371.6 "
   class="st20"
   style="clip-rule:evenodd;fill:#c26425;fill-rule:evenodd" />
		<polygon
   id="polygon102"
   points="1029.1,512 1029.1,292 700.6,481.6 700.6,701.6 "
   class="st17"
   style="clip-rule:evenodd;fill:#f77620;fill-rule:evenodd" />
		<polygon
   id="polygon104"
   points="1029.1,512 1029.1,472.6 700.6,662.3 700.6,701.6 "
   class="st20"
   style="clip-rule:evenodd;fill:#c26425;fill-rule:evenodd" />
		<g
   id="g114">
			<path
   id="path106"
   d="m 942.3,522.1 c -22.1,12.9 -40,41.2 -40,63.3 0,22.1 17.9,29.5 40,16.6 22.1,-12.9 40,-41.2 40,-63.3 0,-22 -17.9,-29.5 -40,-16.6 z"
   class="st21"
   inkscape:connector-curvature="0"
   style="clip-rule:evenodd;fill:#333333;fill-rule:evenodd" />
			<g
   id="g112">
				<path
   id="path108"
   d="m 942.3,539.9 c -12.3,7.2 -22.2,22.9 -22.2,35.2 0,12.3 10,16.4 22.2,9.3 12.3,-7.2 22.2,-22.9 22.2,-35.2 0,-12.4 -9.9,-16.5 -22.2,-9.3 z"
   class="st22"
   inkscape:connector-curvature="0"
   style="clip-rule:evenodd;fill:#4d4d4d;fill-rule:evenodd" />
				<path
   id="path110"
   d="m 943.6,544.2 c -11,6.4 -19.9,20.5 -19.9,31.5 0,1.7 0.2,3.2 0.6,4.6 3,0.1 6.6,-0.9 10.4,-3.1 11,-6.4 19.9,-20.5 19.9,-31.5 0,-1.7 -0.2,-3.2 -0.6,-4.6 -3,-0.2 -6.6,0.8 -10.4,3.1 z"
   class="st23"
   inkscape:connector-curvature="0"
   style="clip-rule:evenodd;fill:#696969;fill-rule:evenodd" />
			</g>
		</g>
		<path
   id="path116"
   d="m 942.3,516.8 c -25.4,14.8 -46.2,46.9 -47.5,72.7 l 16.4,-9.5 c 1.2,-16.8 14.7,-37.3 31,-46.9 16.5,-9.6 30,-4.7 31.1,11 l 16.4,-9.5 c -0.9,-24.7 -21.8,-32.8 -47.4,-17.8 z"
   class="st20"
   inkscape:connector-curvature="0"
   style="clip-rule:evenodd;fill:#c26425;fill-rule:evenodd" />
		<path
   id="path118"
   d="M 416.9,488.4 585.5,585.7 679.6,531.3 511,434 c -112.4,64.9 18.3,-10.5 -94.1,54.4 z"
   class="st24"
   inkscape:connector-curvature="0"
   style="clip-rule:evenodd;fill:#ffffff;fill-rule:evenodd" />
		<polygon
   id="polygon120"
   points="416.9,488.4 370.9,586.4 370.9,664.8 539.5,762.2 539.5,683.8 585.5,585.7 "
   class="st25"
   style="clip-rule:evenodd;fill:#e6e6e6;fill-rule:evenodd" />
		<polygon
   id="polygon122"
   points="536.1,672.9 575.5,588.8 420.3,499.2 380.9,583.3 "
   class="st26"
   style="clip-rule:evenodd;fill:#298787;fill-rule:evenodd" />
		<polygon
   id="polygon124"
   points="539.5,762.2 539.5,722.8 370.9,625.5 370.9,664.8 "
   class="st27"
   style="clip-rule:evenodd;fill:#b3b3b3;fill-rule:evenodd" />
		<polygon
   id="polygon126"
   points="539.5,683.8 539.5,762.2 679.6,681.2 679.6,531.3 585.5,585.7 "
   class="st28"
   style="clip-rule:evenodd;fill:#cccccc;fill-rule:evenodd" />
		<polygon
   id="polygon128"
   points="539.5,762.2 647.6,699.8 679.6,681.2 679.6,641.9 539.5,722.8 "
   class="st27"
   style="clip-rule:evenodd;fill:#b3b3b3;fill-rule:evenodd" />
		<polygon
   id="polygon130"
   points="671.9,594.5 671.9,544.7 591.5,591.2 559.4,659.4 "
   class="st26"
   style="clip-rule:evenodd;fill:#298787;fill-rule:evenodd" />
		<g
   id="g138">
			<path
   id="path132"
   d="m 606.1,683.4 c -22.1,12.9 -40,41.2 -40,63.3 0,22.1 17.9,29.5 40,16.6 22.1,-12.9 40,-41.2 40,-63.3 0,-22 -17.9,-29.5 -40,-16.6 z"
   class="st21"
   inkscape:connector-curvature="0"
   style="clip-rule:evenodd;fill:#333333;fill-rule:evenodd" />
			<path
   id="path134"
   d="m 606.1,701.2 c -12.3,7.2 -22.2,22.9 -22.2,35.2 0,12.3 10,16.4 22.2,9.3 12.3,-7.2 22.2,-22.9 22.2,-35.2 0,-12.4 -9.9,-16.5 -22.2,-9.3 z"
   class="st22"
   inkscape:connector-curvature="0"
   style="clip-rule:evenodd;fill:#4d4d4d;fill-rule:evenodd" />
			<path
   id="path136"
   d="m 607.4,705.5 c -11,6.4 -19.9,20.5 -19.9,31.5 0,1.7 0.2,3.2 0.6,4.6 3,0.1 6.6,-0.9 10.4,-3.1 11,-6.4 19.9,-20.5 19.9,-31.5 0,-1.7 -0.2,-3.2 -0.6,-4.6 -3,-0.2 -6.6,0.8 -10.4,3.1 z"
   class="st23"
   inkscape:connector-curvature="0"
   style="clip-rule:evenodd;fill:#696969;fill-rule:evenodd" />
		</g>
		<path
   id="path140"
   d="m 606.1,678 c -25.4,14.8 -46.2,46.9 -47.5,72.7 l 16.4,-9.5 c 1.2,-16.8 14.7,-37.3 31,-46.9 16.5,-9.7 30,-4.7 31.1,11 l 16.4,-9.5 C 652.6,671.2 631.7,663.1 606.1,678 Z"
   class="st27"
   inkscape:connector-curvature="0"
   style="clip-rule:evenodd;fill:#b3b3b3;fill-rule:evenodd" />
		<path
   id="path142"
   d="M 521.4,675.2 483.5,654 c -2.2,-1.2 -3.9,0.1 -3.9,3 v 18.9 c 0,2.8 1.8,6.2 3.9,7.4 l 37.9,21.1 c 2.2,1.2 3.9,-0.1 3.9,-3 v -18.9 c 0.1,-2.8 -1.7,-6.1 -3.9,-7.3 z"
   class="st26"
   inkscape:connector-curvature="0"
   style="clip-rule:evenodd;fill:#298787;fill-rule:evenodd" />
		<path
   id="path144"
   d="m 423,618.6 -38,-21.2 c -2.2,-1.2 -3.9,0.1 -3.9,3 v 18.9 c 0,2.8 1.8,6.2 3.9,7.4 l 37.9,21.1 c 2.2,1.2 3.9,-0.1 3.9,-3 v -18.9 c 0.1,-2.8 -1.6,-6.1 -3.8,-7.3 z"
   class="st26"
   inkscape:connector-curvature="0"
   style="clip-rule:evenodd;fill:#298787;fill-rule:evenodd" />
		<polygon
   id="polygon146"
   points="414.9,456.7 605.4,566.7 605.4,536.6 414.9,426.6 "
   class="st18"
   style="clip-rule:evenodd;fill:#ff9e5e;fill-rule:evenodd" />
		<polygon
   id="polygon148"
   points="605.4,566.7 701.5,511.2 701.5,481.1 605.4,536.6 "
   class="st17"
   style="clip-rule:evenodd;fill:#f77620;fill-rule:evenodd" />
		<path
   id="path150"
   d="m 577.4,624.2 h -11.7 c -3.5,0 -6.3,2.8 -6.3,6.3 v 29 c 0,3.5 2.8,6.3 6.3,6.3 h 11.7 c 3.5,0 6.3,-2.8 6.3,-6.3 v -29 c -0.1,-3.5 -2.9,-6.3 -6.3,-6.3 z"
   class="st29"
   inkscape:connector-curvature="0"
   style="clip-rule:evenodd;fill:#999999;fill-rule:evenodd" />
		<path
   id="path152"
   d="m 465.7,687.6 -37.9,-21.1 c -2.2,-1.2 -3.9,0.1 -3.9,3 V 682 c 0,2.8 1.8,6.2 3.9,7.4 l 37.9,21.1 c 2.2,1.2 3.9,-0.1 3.9,-3 v -12.6 c 0,-2.8 -1.8,-6.1 -3.9,-7.3 z"
   class="st25"
   inkscape:connector-curvature="0"
   style="clip-rule:evenodd;fill:#e6e6e6;fill-rule:evenodd" />
		<path
   id="path154"
   d="M 414.9,426.6 605.4,536.6 1029.1,292 838.6,182 c -127,73.3 -296.7,171.3 -423.7,244.6 z"
   class="st30"
   inkscape:connector-curvature="0"
   style="clip-rule:evenodd;fill:#fc883a;fill-rule:evenodd" />
	</g><g
     id="g204">
		<g
   id="g162">
			<path
   id="path158"
   d="m 1098.7,324.1 c -3.6,0 -6.6,3 -6.6,6.6 v 22.4 l -22.5,13 c -3.2,1.8 -4.2,5.8 -2.4,9 1.8,3.2 7.3,3.4 9,2.4 1.7,-1 0.5,-0.3 0.7,-0.5 l 28.4,-16.4 v -30 c 0,-3.5 -3,-6.5 -6.6,-6.5 z"
   class="st6"
   inkscape:connector-curvature="0"
   style="clip-rule:evenodd;fill:#fcd1c0;fill-rule:evenodd" />
			<path
   id="path160"
   d="m 1098.7,324.1 c -3.6,0 -6.6,3 -6.6,6.6 v 19.6 c 0,0.9 3,1.7 6.6,1.7 3.6,0 6.6,-0.7 6.6,-1.7 v -19.6 c 0,-3.6 -3,-6.6 -6.6,-6.6 z"
   class="st7"
   inkscape:connector-curvature="0"
   style="clip-rule:evenodd;fill:#5d97a6;fill-rule:evenodd" />
		</g>
		<path
   id="path164"
   d="m 1086.3,436 9,5.2 18,-10.4 V 421 l -9,-5.2 c -13.6,7.9 -18.4,9.3 -18,20.2 z"
   class="st8"
   inkscape:connector-curvature="0"
   style="clip-rule:evenodd;fill:#bfa675;fill-rule:evenodd" />
		<path
   id="path166"
   d="m 1095.2,441.2 18,-10.4 V 421 c -13.5,7.9 -18.3,9.3 -18,20.2 z"
   class="st9"
   inkscape:connector-curvature="0"
   style="clip-rule:evenodd;fill:#ab9363;fill-rule:evenodd" />
		<path
   id="path168"
   d="m 1104.2,362.5 -4.5,2.6 -4.5,2.6 v 14 34.3 5.2 c 0,2 4,3.7 9,3.7 5,0 9,-1.6 9,-3.7 V 416 367.8 l -4.5,-2.6 z"
   class="st7"
   inkscape:connector-curvature="0"
   style="clip-rule:evenodd;fill:#5d97a6;fill-rule:evenodd" />
		<path
   id="path170"
   d="m 1127.1,323.4 -8,-4.6 c -2.4,-1.4 -5.7,-2.4 -8.2,-0.9 l -12.9,7.4 c 9,16.9 17.9,56.5 26.9,73.3 l 13.1,-7.5 v -50.7 c -0.1,-5.9 -4.9,-13.6 -10.9,-17 z"
   class="st10"
   inkscape:connector-curvature="0"
   style="clip-rule:evenodd;fill:#71b2c2;fill-rule:evenodd" />
		<path
   id="path172"
   d="m 1114.1,330.9 -8,-4.6 c -5.9,-3.4 -10.8,-1.4 -10.8,4.6 v 50.7 l 29.6,17 V 348 c 0,-6 -4.9,-13.6 -10.8,-17.1 z"
   class="st10"
   inkscape:connector-curvature="0"
   style="clip-rule:evenodd;fill:#71b2c2;fill-rule:evenodd" />
		<path
   id="path174"
   d="m 1111,450.3 9,5.2 18,-10.4 v -9.8 l -9,-5.2 c -13.5,7.8 -18.4,9.2 -18,20.2 z"
   class="st8"
   inkscape:connector-curvature="0"
   style="clip-rule:evenodd;fill:#bfa675;fill-rule:evenodd" />
		<path
   id="path176"
   d="m 1120,455.4 18,-10.4 v -9.8 c -13.6,7.9 -18.4,9.3 -18,20.2 z"
   class="st9"
   inkscape:connector-curvature="0"
   style="clip-rule:evenodd;fill:#ab9363;fill-rule:evenodd" />
		<path
   id="path178"
   d="m 1128.9,376.7 -4.5,2.6 -4.5,2.6 v 14 34.3 5.2 c 0,2 4,3.7 9,3.7 5,0 9,-1.6 9,-3.7 V 430.2 382 l -4.5,-2.6 z"
   class="st10"
   inkscape:connector-curvature="0"
   style="clip-rule:evenodd;fill:#71b2c2;fill-rule:evenodd" />
		<g
   id="g184">
			<path
   id="path180"
   d="m 1131.3,335.3 c -3.6,0 -6.6,3 -6.6,6.6 v 22.4 l -22.5,13 c -3.2,1.8 -4.2,5.8 -2.4,9 1.8,3.2 7.3,3.4 9,2.4 1.7,-1 0.5,-0.3 0.7,-0.5 l 28.4,-16.4 v -30 c 0,-3.5 -2.9,-6.5 -6.6,-6.5 z"
   class="st6"
   inkscape:connector-curvature="0"
   style="clip-rule:evenodd;fill:#fcd1c0;fill-rule:evenodd" />
			<path
   id="path182"
   d="m 1131.3,335.3 c -3.6,0 -6.6,3 -6.6,6.6 v 19.6 c 0,0.9 2.9,1.7 6.6,1.7 3.6,0 6.6,-0.7 6.6,-1.7 v -19.6 c 0,-3.6 -2.9,-6.6 -6.6,-6.6 z"
   class="st7"
   inkscape:connector-curvature="0"
   style="clip-rule:evenodd;fill:#5d97a6;fill-rule:evenodd" />
		</g>
		<path
   id="path186"
   d="m 1101.3,290.9 v 22.3 c 0,4.3 3.5,9.7 7.7,12.2 l 5.7,3.3 c 1.7,1 4.1,1.7 5.9,0.7 l 13.3,-7.1 c 1.2,-0.7 2,-2 2,-4 V 296 l -21.2,-12.2 z"
   class="st11"
   inkscape:connector-curvature="0"
   style="clip-rule:evenodd;fill:#f7c6b2;fill-rule:evenodd" />
		<path
   id="path188"
   d="m 1101.3,313.3 c 0,4.3 3.5,9.7 7.7,12.2 l 5.7,3.3 c 4.3,2.4 7.7,1 7.7,-3.3 V 303.2 L 1101.2,291 v 22.3 z"
   class="st6"
   inkscape:connector-curvature="0"
   style="clip-rule:evenodd;fill:#fcd1c0;fill-rule:evenodd" />
		<g
   id="g200">
			<polygon
   id="polygon190"
   points="1128.9,383.1 1128.9,354 1092.8,374.9 1092.8,404 "
   class="st12"
   style="clip-rule:evenodd;fill:#a18262;fill-rule:evenodd" />
			<polygon
   id="polygon192"
   points="1092.8,404 1092.8,374.8 1035.2,341.6 1035.2,370.8 "
   class="st13"
   style="clip-rule:evenodd;fill:#c49b72;fill-rule:evenodd" />
			<polygon
   id="polygon194"
   points="1092.8,374.8 1128.9,354 1071.4,320.7 1035.2,341.6 "
   class="st14"
   style="clip-rule:evenodd;fill:#d6ad85;fill-rule:evenodd" />
			<polygon
   id="polygon196"
   points="1113,392.4 1113,363.2 1108.8,365.7 1108.8,394.8 "
   class="st15"
   style="clip-rule:evenodd;fill:#856b51;fill-rule:evenodd" />
			<polygon
   id="polygon198"
   points="1108.8,365.7 1113,363.2 1055.4,330 1051.2,332.4 "
   class="st13"
   style="clip-rule:evenodd;fill:#c49b72;fill-rule:evenodd" />
		</g>
		<path
   id="path202"
   d="m 1131.8,287.1 c -6,-5.4 -16.7,-5.4 -24.1,-3.1 -6.2,1.9 -2.8,4.2 -10.6,3.2 -4.9,-0.6 -6.9,0.9 -6.8,2 0.7,6.6 9.6,11.6 15.3,13.3 1.6,0.5 11.6,2.4 11.6,3 -0.1,1.6 4,8.1 5.4,6.4 1.9,-2.3 5,-2.1 5,3 0,1.9 10.2,8.2 9.6,0.7 -0.1,-0.9 2.2,-11.3 2.2,-14.1 0,-8.5 -1.7,-9.1 -7.6,-14.4 z"
   class="st16"
   inkscape:connector-curvature="0"
   style="clip-rule:evenodd;fill:#735139;fill-rule:evenodd" />
	</g></g>
	
</g>
</svg>