<?xml version="1.0" encoding="UTF-8" standalone="no"?>
<!-- Generator: Adobe Illustrator 18.0.0, SVG Export Plug-In . SVG Version: 6.00 Build 0)  -->

<svg
   xmlns:dc="http://purl.org/dc/elements/1.1/"
   xmlns:cc="http://creativecommons.org/ns#"
   xmlns:rdf="http://www.w3.org/1999/02/22-rdf-syntax-ns#"
   xmlns:svg="http://www.w3.org/2000/svg"
   xmlns="http://www.w3.org/2000/svg"
   xmlns:sodipodi="http://sodipodi.sourceforge.net/DTD/sodipodi-0.dtd"
   xmlns:inkscape="http://www.inkscape.org/namespaces/inkscape"
   version="1.1"
   id="Layer_1"
   x="0px"
   y="0px"
   viewBox="0 0 1418.4688 1262.8"
   enable-background="new 0 0 1700 1400"
   xml:space="preserve"
   sodipodi:docname="discuss.svg"
   width="1418.4688"
   height="1262.8"
   inkscape:version="0.92.3 (2405546, 2018-03-11)"><metadata
   id="metadata105"><rdf:RDF><cc:Work
       rdf:about=""><dc:format>image/svg+xml</dc:format><dc:type
         rdf:resource="http://purl.org/dc/dcmitype/StillImage" /><dc:title></dc:title></cc:Work></rdf:RDF></metadata><defs
   id="defs103" /><sodipodi:namedview
   pagecolor="#ffffff"
   bordercolor="#666666"
   borderopacity="1"
   objecttolerance="10"
   gridtolerance="10"
   guidetolerance="10"
   inkscape:pageopacity="0"
   inkscape:pageshadow="2"
   inkscape:window-width="1920"
   inkscape:window-height="1031"
   id="namedview101"
   showgrid="false"
   fit-margin-top="0"
   fit-margin-left="0"
   fit-margin-right="0"
   fit-margin-bottom="0"
   inkscape:zoom="0.238396"
   inkscape:cx="326.3227"
   inkscape:cy="525.81046"
   inkscape:window-x="1366"
   inkscape:window-y="0"
   inkscape:window-maximized="1"
   inkscape:current-layer="g94" />
<g
   id="g98"
   transform="translate(-133.0829,-68.6)">
	
	<g
   id="g96">
		
		<g
   id="g94">
			<path
   d="m 639.7,1331.4 110,-188.9 c 0,0 -54,-314 -138.6,-414.7 -33.4,136.7 42.6,390.7 42.6,390.7 L 578,1331.4 Z"
   id="path6"
   inkscape:connector-curvature="0"
   style="fill:#00848a" />
			<path
   d="m 214.2,1331.4 h 379 C 573.6,1245 632.5,821.5 611.1,727.9 L 263.7,702 c -38,111.3 -77.5,513.3 -49.5,629.4 z"
   id="path8"
   inkscape:connector-curvature="0"
   style="fill:#f3f5f9" />
			<g
   id="g50">
				<g
   id="g14">
					<path
   d="m 1109.9,905.5 -53.1,-120.1 c -16.8,31.9 -31.5,97.6 -40.9,156.7 22,21.3 50.7,35.7 80.9,40.4 9.8,-44.5 13.1,-77 13.1,-77 z"
   id="path10"
   inkscape:connector-curvature="0"
   style="fill:#eb633e" />
					<path
   d="m 1015.9,942.1 c -6.5,40.7 -10.5,78.2 -11,99.3 l -137.2,-243 c 19.6,-21.6 33.2,-51.4 30.9,-80.5 -9.6,-3.7 -19.3,4.7 -26.2,12.4 -7,7.9 -14.1,15.7 -21.1,23.6 4.9,-22.3 7.6,-49.3 12.5,-71.6 -32.8,-6.3 -68.6,6.7 -89.8,32.5 8.4,35.6 22.3,66.9 47.7,93.3 31.5,101.7 86,242.4 146.2,333.5 17.6,26.7 57.3,25.2 73.1,-2.6 28.2,-49.7 45.5,-109.8 55.8,-156.6 -30.2,-4.6 -58.9,-19 -80.9,-40.3 z"
   id="path12"
   inkscape:connector-curvature="0"
   style="fill:#ffbf83" />
				</g>
				<path
   d="m 1072,727.9 c -40.3,63.1 -56.8,175.1 -56.8,175.1 23.9,27.2 102.1,37.1 102.1,37.1 z"
   id="path16"
   inkscape:connector-curvature="0"
   style="fill:#fddbcf" />
				<path
   d="m 1468.9,1331.4 h -379 C 1109.5,1245 1050.6,821.5 1072,727.9 L 1419.5,702 c 37.9,111.3 77.4,513.3 49.4,629.4 z"
   id="path18"
   inkscape:connector-curvature="0"
   style="fill:#ffe7dc" />
				<g
   id="g24">
					<path
   d="m 1276,653.5 c -4.6,6.6 -10.1,12.6 -16.3,17.7 -12.8,10.6 -27.9,17.8 -43.4,23.7 -21.5,8.2 -44,13.8 -66.8,16.8 -6.6,6.3 -15.1,10.7 -26.2,12.4 16.8,38.5 59.4,64.2 101.3,61.1 41.9,-3.1 80.2,-34.8 91.1,-75.4 -25.2,-8.7 -35.5,-28.1 -39.7,-56.3 z"
   id="path20"
   inkscape:connector-curvature="0"
   style="fill:#ffbf83" />
					<path
   d="m 1259.7,671.2 c 6.2,-5.1 11.8,-11.1 16.3,-17.7 -2.6,-17.8 -2.8,-39.2 -2.8,-63.6 l -108.8,1.7 c 5.9,37.3 11.9,94.4 -14.9,120 22.8,-3 45.3,-8.7 66.8,-16.8 15.5,-5.8 30.7,-13.1 43.4,-23.6 z"
   id="path22"
   inkscape:connector-curvature="0"
   style="fill:#eb633e" />
				</g>
				<path
   d="m 1203.2,670.2 -68.2,12.7 c -32.8,6.1 -63.1,-19 -63.1,-52.4 v -159 c 0,-55.9 45.3,-101.3 101.3,-101.3 v 0 c 55.9,0 101.3,45.3 101.3,101.3 v 112.7 c 0,42.1 -29.9,78.2 -71.3,86 z"
   id="path26"
   inkscape:connector-curvature="0"
   style="fill:#ffbf83" />
				<path
   d="m 1051.7,400.8 c 51.9,26.1 114.3,30.5 169.4,12.1 l 23.8,62.8 c -11.7,36.2 -19.8,74.8 -22.6,112.8 h 34.2 c 9.4,0 17.6,-2.5 23.8,-9.6 6.2,-7.1 9.5,-16.2 12.2,-25.1 14.3,-47.2 16.5,-98 6.4,-146.3 -3.1,-14.7 -7.7,-29.8 -18.2,-40.6 -10.5,-10.7 -28.5,-15.4 -40.9,-6.9 -4.7,-28 -36.7,-50.1 -64.5,-44.3 -20.1,4.2 -36.4,19.6 -56.4,24.1 -13.5,3 -27.5,0.8 -41.3,1.1 -13.8,0.3 -28.9,3.8 -37,15 -8.1,11.2 -1.3,38.7 11.1,44.9 z"
   id="path28"
   inkscape:connector-curvature="0"
   style="fill:#52274c" />
				<path
   d="m 1273.2,589.9 c -7,1.3 -14.1,1.8 -21.2,1.7 0.2,-0.5 -0.1,-1 -0.4,-1.5 -0.1,-12.2 0.5,-25.1 4.5,-37.1 4,-12.1 11.8,-23.4 23.3,-28.9 11.5,-5.5 26.8,-3.8 34.9,6 7.5,12.2 4.8,28.8 -4,39.9 -9,11.2 -22.9,17.3 -37.1,19.9 z"
   id="path30"
   inkscape:connector-curvature="0"
   style="fill:#f89e6a" />
				<path
   d="M 1117.7,498.3 C 1093,537 1086,588.4 1086,588.4 h 39.5 c 0,-31.2 -7.8,-90.1 -7.8,-90.1 z"
   id="path32"
   inkscape:connector-curvature="0"
   style="fill:#f89e6a" />
				<circle
   cx="1164.4"
   cy="508.79999"
   r="10.5"
   id="circle34"
   style="fill:#071d45" />
				<circle
   cx="1086"
   cy="505.10001"
   r="10.5"
   id="circle36"
   style="fill:#071d45" />
				<path
   d="m 1089.9,610 c 6.5,20.1 26.3,33.7 48.2,31.5 21.9,-2.2 38.7,-19.4 41.1,-40.3 z"
   id="path38"
   inkscape:connector-curvature="0"
   style="fill:#eb633e" />
				<g
   id="g46">
					<path
   d="m 1532.1,950.2 c -24,-100.7 -66.1,-197.5 -112.6,-248.1 0,0 -1.2,167.3 27,246 2,5.5 3.9,11 5.7,16.6 27.3,0.5 54.6,-4.5 79.9,-14.5 z"
   id="path40"
   inkscape:connector-curvature="0"
   style="fill:#eb633e" />
					<path
   d="m 1471.8,1048.2 c 0.6,5.1 1,10.2 1.3,15.3 l 40,-10.9 z"
   id="path42"
   inkscape:connector-curvature="0"
   style="fill:#eb633e" />
					<path
   d="m 1452.2,964.6 c 9,27.3 16.4,56.2 19.6,83.6 l 41.3,4.4 -40,10.9 -235.1,60.9 -26.6,-65.4 -55.5,-3 -27.2,63.9 h 31.8 l 52.4,60.9 337.8,-51.7 c 3.5,-54.7 -4,-117.5 -18.6,-178.8 -25.3,9.9 -52.6,14.9 -79.9,14.3 z"
   id="path44"
   inkscape:connector-curvature="0"
   style="fill:#ffbf83" />
				</g>
				<path
   d="m 1419.5,702 -7.1,39.1 c -11,60.6 -4,123.1 20.1,179.7 v 0 c 56.8,2 97.9,-17.9 97.9,-17.9 C 1499.2,771 1419.5,702 1419.5,702 Z"
   id="path48"
   inkscape:connector-curvature="0"
   style="fill:#fddbcf" />
			</g>
			<g
   id="g56">
				<path
   d="m 407.1,653.5 c 4.6,6.6 10.1,12.6 16.3,17.7 12.8,10.6 27.9,17.8 43.4,23.7 21.5,8.2 44,13.8 66.8,16.8 6.6,6.3 15.1,10.7 26.2,12.4 -16.8,38.5 -59.4,64.2 -101.3,61.1 -41.9,-3.1 -80.2,-34.8 -91.1,-75.4 25.2,-8.7 35.5,-28.1 39.7,-56.3 z"
   id="path52"
   inkscape:connector-curvature="0"
   style="fill:#ad6458" />
				<path
   d="m 423.4,671.2 c -6.2,-5.1 -11.8,-11.1 -16.3,-17.7 2.6,-17.8 2.8,-39.2 2.8,-63.6 l 108.8,1.7 c -5.9,37.3 -11.9,94.4 14.9,120 -22.8,-3 -45.3,-8.7 -66.8,-16.8 -15.5,-5.8 -30.6,-13.1 -43.4,-23.6 z"
   id="path54"
   inkscape:connector-curvature="0"
   style="fill:#965348" />
			</g>
			<g
   id="g68">
				<path
   d="m 479.9,655.1 68.2,12.7 c 32.8,6.1 63.1,-19 63.1,-52.4 v -159 c 0,-55.9 -45.3,-101.3 -101.3,-101.3 v 0 c -55.9,0 -101.3,45.3 -101.3,101.3 v 112.7 c 0,42.2 30,78.3 71.3,86 z"
   id="path58"
   inkscape:connector-curvature="0"
   style="fill:#ad6458" />
				<circle
   cx="518.70001"
   cy="493.79999"
   r="10.5"
   id="circle60"
   style="fill:#071d45" />
				<circle
   cx="597.09998"
   cy="490.10001"
   r="10.5"
   id="circle62"
   style="fill:#071d45" />
				<path
   d="m 392.2,530.3 c -25,-23.9 -33.7,-62.1 -25.7,-95.8 8,-33.7 31.2,-62.5 60,-81.8 28.8,-19.2 62.8,-29.5 97.1,-34.2 21.7,-3 44.8,-3.7 64.4,6.1 19.6,9.8 34.1,32.8 27.6,53.7 -5.7,18.4 -25.7,29.5 -45,30.2 -19.3,0.7 -37.8,-6.8 -55.1,-15.4 -16.1,-8 -34.5,-17.2 -51.1,-10.3 -18.1,7.5 -24.1,29.9 -25.8,49.4 -4.3,49.6 3.9,100.3 23.6,146.1 4.1,9.4 9.6,19.5 19.4,22.5 15.3,4.6 38.5,-17.3 51.9,-26 26.4,-17 71.6,-19.4 86.8,8 8,14.5 -3.2,52.6 -12.6,66.2 -9.4,13.6 -26,20.9 -42.4,22.9 -16.4,2 -33.1,-0.7 -49.4,-3.3 -29.7,-4.8 -60.6,-10.2 -84.7,-28.2 -32,-23.9 -52.7,-72.4 -39,-110.1 z"
   id="path64"
   inkscape:connector-curvature="0"
   style="fill:#212020" />
				<path
   d="m 566.8,560.4 c 18.8,-1.5 37.6,-2.9 56.4,-4.4 -16.3,-23.8 -37.4,-44.3 -61.8,-59.8 -2,21.3 0.2,43.6 5.4,64.2 z"
   id="path66"
   inkscape:connector-curvature="0"
   style="fill:#965348" />
			</g>
			<g
   id="g74">
				<path
   d="m 207.3,810.8 c -48,125.5 -88.3,324.2 -69.5,520.6 h 194 c -2,-26.9 -2.9,-54.8 -3,-83.4 -51.5,-66.8 -89,-144.5 -108.8,-226.5 -16.7,-68.8 -20.8,-140.4 -12.7,-210.7 z"
   id="path70"
   inkscape:connector-curvature="0"
   style="fill:#00979d" />
				<path
   d="M 367.4,709.7 263.7,702 c -17.9,22.2 -37.7,60 -56.4,108.8 -8.1,70.2 -4,141.9 12.6,210.7 19.8,82 57.3,159.7 108.8,226.5 -0.8,-200.5 39,-432.5 38.7,-538.3 z"
   id="path72"
   inkscape:connector-curvature="0"
   style="fill:#00848a" />
			</g>
			<g
   id="g82">
				<path
   d="m 533.6,1331.4 h 82.3 c 13.7,-53.8 9.1,-114.6 1.6,-174.7 l -85.8,39.6 c -1.5,42.7 -1.2,87.7 1.9,135.1 z"
   id="path76"
   inkscape:connector-curvature="0"
   style="fill:#00979d" />
				<path
   d="m 607.6,940.1 c 28.8,-112.8 3.5,-212.2 3.5,-212.2 l -51.4,-3.8 c 18.8,77.9 3.2,171.5 -11.4,286.4 L 601.5,986 c 0.6,-16.3 2.5,-31.6 6.1,-45.9 z"
   id="path78"
   inkscape:connector-curvature="0"
   style="fill:#00979d" />
				<path
   d="m 601.5,985.9 -53.2,24.5 c -7.2,56.6 -14.1,118.3 -16.6,185.9 l 85.8,-39.6 c -7.6,-60.1 -18.1,-119.6 -16,-170.8 z"
   id="path80"
   inkscape:connector-curvature="0"
   style="fill:#00848a" />
			</g>
			<g
   id="g88">
				<path
   d="m 905.5,997.8 c -6.8,-4.7 -15.1,-6.6 -23.1,-8.4 -41.3,-9.3 -86.3,-24.7 -128.7,-24.7 l -26,11.2 v 71.2 l 26.6,-13.9 c 29.2,12.7 53.7,35.8 67.9,64.3 14.8,-10.9 29.6,-21.8 44.4,-32.8 4.8,-3.6 9.8,-7.3 12.6,-12.7 4.8,-9.2 1.5,-20.9 -5.1,-28.9 -6.6,-8 -11.7,-18 -20.9,-22.8 20.9,6.1 41.8,12.3 62.7,18.4 1.5,-8 -3.6,-16.2 -10.4,-20.9 z"
   id="path84"
   inkscape:connector-curvature="0"
   style="fill:#ad6458" />
				<path
   d="m 448.8,1086 c 0,0 -103,-300.6 -185.1,-384 -50.1,83.5 26.1,314.7 146.7,510.5 l 317.4,-149 V 957.3 Z"
   id="path86"
   inkscape:connector-curvature="0"
   style="fill:#00979d" />
			</g>
			<path
   d="M 1327.2,68.6 H 942 c -24.5,0 -44.4,19.9 -44.4,44.4 v 107.2 c 0,24.5 19.9,44.4 44.4,44.4 h 17.4 L 673.8,436.2 1099,264.6 h 228.2 c 24.5,0 44.4,-19.9 44.4,-44.4 V 113 c 0,-24.6 -19.9,-44.4 -44.4,-44.4 z"
   id="path90"
   inkscape:connector-curvature="0"
   style="fill:#52274c;fill-opacity:1" />
			<path
   d="M 974.1,412.2 760,264.6 h 23.5 c 24.5,0 44.4,-19.9 44.4,-44.4 V 113 C 827.9,88.5 808,68.6 783.5,68.6 H 324.6 c -24.5,0 -44.4,19.9 -44.4,44.4 v 107.2 c 0,24.5 19.9,44.4 44.4,44.4 h 298.2 z"
   id="path92"
   inkscape:connector-curvature="0"
   style="fill:#ee008a;fill-opacity:1" />
		</g>
	</g>
</g>
</svg>