<?xml version="1.0" encoding="UTF-8"?>
<svg width="1024px" height="227px" viewBox="0 0 1024 227" version="1.1" xmlns="http://www.w3.org/2000/svg" xmlns:xlink="http://www.w3.org/1999/xlink">
    <!-- Generator: Sketch 46 (44423) - http://www.bohemiancoding.com/sketch -->
    <title>Group 10</title>
    <desc>Created with Sketch.</desc>
    <defs>
        <rect id="path-1" x="0" y="0" width="1024" height="233"/>
        <linearGradient x1="50%" y1="0%" x2="50%" y2="100%" id="linearGradient-3">
            <stop stop-color="#F600AB" offset="0%"/>
            <stop stop-color="#E90072" offset="100%"/>
        </linearGradient>
    </defs>
    <g id="Web" stroke="none" stroke-width="1" fill="none" fill-rule="evenodd">
        <g id="Group-10" transform="translate(0.000000, -6.000000)">
            <mask id="mask-2" fill="white">
                <use xlink:href="#path-1"/>
            </mask>
            <g id="Mask"/>
            <g id="Group-2" mask="url(#mask-2)">
                <g transform="translate(362.500000, 179.500000) scale(1, -1) translate(-362.500000, -179.500000) translate(-392.000000, 0.000000)">
                    <path d="M272.157945,328.080554 C374.536173,335.136285 451.843234,328.532764 504.07913,308.26999 C582.432973,277.87583 592.079697,183.015095 760.600751,171.488436 C872.948121,163.803997 945.130898,145.458678 977.149081,116.452479 L244.642856,124.538999 L272.157945,328.080554 Z" id="Path-2" fill="#FF0089" opacity="0.340919384"/>
                    <path d="M326.206948,303.603281 C428.585176,310.659012 505.892237,304.055491 558.128133,283.792718 C636.481976,253.398557 646.1287,158.537822 814.649754,147.011164 C926.997124,139.326725 999.179901,120.981406 1031.19808,91.9752066 L298.691859,100.061726 L326.206948,303.603281 Z" id="Path-2-Copy" fill="#E90072" opacity="0.340919384"/>
                    <path d="M216.201171,281.926674 C385.57253,291.326177 513.466931,282.529099 599.884373,255.535439 C729.510537,215.044948 1085.94133,158.139674 1364.73733,142.784091 C1550.60132,132.547035 1556.52775,84.9523384 1382.5166,0 L170.681062,10.7726993 L216.201171,281.926674 Z" id="Path-2-Copy-2" fill="#E90072"/>
                    <path d="M54.6027594,356.266504 C257.768874,363.322236 411.18211,356.718714 514.84247,336.455941 C670.333008,306.061781 691.843236,212.831047 1026.26754,201.304389 C1249.21708,193.61995 1393.60733,167.263319 1459.4383,122.234497 L0,114.713185 L54.6027594,356.266504 Z" id="Path-2-Copy-2" fill="url(#linearGradient-3)" opacity="0.515002264"/>
                </g>
            </g>
        </g>
    </g>
</svg>