<?xml version="1.0" encoding="UTF-8" standalone="no"?>
<!-- Created with Inkscape (http://www.inkscape.org/) -->

<svg
   xmlns:dc="http://purl.org/dc/elements/1.1/"
   xmlns:cc="http://creativecommons.org/ns#"
   xmlns:rdf="http://www.w3.org/1999/02/22-rdf-syntax-ns#"
   xmlns:svg="http://www.w3.org/2000/svg"
   xmlns="http://www.w3.org/2000/svg"
   xmlns:sodipodi="http://sodipodi.sourceforge.net/DTD/sodipodi-0.dtd"
   xmlns:inkscape="http://www.inkscape.org/namespaces/inkscape"
   width="198.41827mm"
   height="54.785004mm"
   viewBox="0 0 198.41827 54.785003"
   version="1.1"
   id="svg8"
   inkscape:version="0.92.3 (2405546, 2018-03-11)"
   sodipodi:docname="logo.svg">
  <defs
     id="defs2" />
  <sodipodi:namedview
     id="base"
     pagecolor="#ffffff"
     bordercolor="#666666"
     borderopacity="1.0"
     inkscape:pageopacity="0.0"
     inkscape:pageshadow="2"
     inkscape:zoom="0.24748738"
     inkscape:cx="-699.97142"
     inkscape:cy="-113.51891"
     inkscape:document-units="mm"
     inkscape:current-layer="flowRoot835"
     showgrid="false"
     fit-margin-top="0"
     fit-margin-left="0"
     fit-margin-right="0"
     fit-margin-bottom="0"
     inkscape:window-width="1366"
     inkscape:window-height="719"
     inkscape:window-x="0"
     inkscape:window-y="0"
     inkscape:window-maximized="1"
     inkscape:pagecheckerboard="true" />
  <metadata
     id="metadata5">
    <rdf:RDF>
      <cc:Work
         rdf:about="">
        <dc:format>image/svg+xml</dc:format>
        <dc:type
           rdf:resource="http://purl.org/dc/dcmitype/StillImage" />
        <dc:title />
      </cc:Work>
    </rdf:RDF>
  </metadata>
  <g
     inkscape:label="Layer 1"
     inkscape:groupmode="layer"
     id="layer1"
     transform="translate(-4.2760012,-83.778634)">
    <flowRoot
       xml:space="preserve"
       id="flowRoot815"
       style="font-style:normal;font-variant:normal;font-weight:normal;font-stretch:normal;font-size:40px;line-height:1.25;font-family:Moderan;-inkscape-font-specification:Moderan;letter-spacing:0px;word-spacing:0px;fill:#000000;fill-opacity:1;stroke:none"
       transform="scale(0.26458333)"><flowRegion
         id="flowRegion817"
         style="font-style:normal;font-variant:normal;font-weight:normal;font-stretch:normal;font-family:Moderan;-inkscape-font-specification:Moderan"><rect
           id="rect819"
           width="846.50781"
           height="240.41631"
           x="-2.0203052"
           y="265.91034"
           style="font-style:normal;font-variant:normal;font-weight:normal;font-stretch:normal;font-family:Moderan;-inkscape-font-specification:Moderan" /></flowRegion><flowPara
         id="flowPara821" /></flowRoot>    <g
       aria-label="AUXILIO"
       transform="matrix(1.9566067,0,0,1.9566067,0.32457192,77.339411)"
       style="font-style:normal;font-weight:normal;font-size:40px;line-height:1.25;font-family:sans-serif;letter-spacing:0px;word-spacing:0px;fill:#ffffff;fill-opacity:0.94117647;stroke:none"
       id="flowRoot835">
      <path
         d="m 13.526198,3.2910156 q 0.728889,0 1.404444,0.1911111 0.675556,0.1866667 1.262223,0.5333334 0.591111,0.3466666 1.075555,0.8311111 0.484445,0.4844444 0.826667,1.0711111 0.346666,0.5866667 0.533333,1.2666667 0.191111,0.6755555 0.191111,1.4044444 V 31.13546 q 0,0.06667 -0.04889,0.111111 -0.04889,0.04444 -0.111111,0.04444 h -5.288889 q -0.06667,0 -0.128889,-0.04444 -0.06222,-0.04444 -0.06222,-0.111111 V 20.251016 q 0,-0.06667 -0.03111,-0.09333 -0.03111,-0.02667 -0.09778,-0.02667 H 7.7706424 q -0.062222,0 -0.1066667,0.02667 -0.044444,0.02667 -0.044444,0.09333 V 31.13546 q 0,0.06667 -0.048889,0.111111 -0.044444,0.04444 -0.1066667,0.04444 H 2.1750868 q -0.066667,0 -0.1111111,-0.04444 -0.044444,-0.04444 -0.044444,-0.111111 V 8.5887934 q 0,-0.7288889 0.1866666,-1.4044444 0.1911111,-0.68 0.5333334,-1.2666667 Q 3.0861979,5.3310156 3.5661979,4.8465712 4.0506424,4.3621267 4.637309,4.0154601 5.2284201,3.6687934 5.9039757,3.4821267 6.5795313,3.2910156 7.3084201,3.2910156 Z m -0.346667,6.8533334 q 0,-0.2577778 -0.09333,-0.4844445 -0.08889,-0.2311111 -0.253333,-0.4 -0.16,-0.1688889 -0.382223,-0.2666667 -0.222222,-0.1022222 -0.48,-0.1022222 H 8.8639757 q -0.2577778,0 -0.4844444,0.1022222 -0.2266667,0.097778 -0.3955556,0.2666667 -0.1688889,0.1688889 -0.2666667,0.4 -0.097778,0.2266667 -0.097778,0.4844445 v 4.2 q 0,0.06222 0.044444,0.106667 0.044444,0.04 0.1066667,0.04 H 13.05953 q 0.06667,0 0.09333,-0.04 0.02667,-0.04444 0.02667,-0.106667 z"
         style="font-style:normal;font-variant:normal;font-weight:normal;font-stretch:normal;font-family:Moderan;-inkscape-font-specification:Moderan;fill:#ffffff;fill-opacity:0.94117647"
         id="path843"
         inkscape:connector-curvature="0" />
      <path
         d="m 37.496545,3.2910156 q 0.06222,0 0.106667,0.044444 0.04444,0.04 0.04444,0.1066666 V 26.002127 q 0,0.728889 -0.191111,1.404444 -0.186667,0.675556 -0.533333,1.266667 -0.342222,0.586667 -0.826667,1.071111 -0.48,0.48 -1.071111,0.826667 -0.586667,0.342222 -1.262222,0.533333 -0.675556,0.186667 -1.404445,0.186667 h -6.222222 q -0.728889,0 -1.404444,-0.186667 -0.675556,-0.191111 -1.266667,-0.533333 -0.586667,-0.346667 -1.071111,-0.826667 -0.48,-0.484444 -0.826667,-1.071111 -0.342222,-0.591111 -0.533333,-1.266667 -0.186667,-0.675555 -0.186667,-1.404444 V 3.4421267 q 0,-0.066667 0.04444,-0.1066666 0.04444,-0.044444 0.111111,-0.044444 h 5.288889 q 0.06667,0 0.111111,0.044444 0.04444,0.04 0.04444,0.1066666 V 24.446571 q 0,0.257778 0.09778,0.484445 0.09778,0.226666 0.266667,0.395555 0.168889,0.168889 0.395555,0.266667 0.226667,0.09778 0.484445,0.09778 h 3.111111 q 0.257778,0 0.484444,-0.09778 0.226667,-0.09778 0.395556,-0.266667 0.168889,-0.168889 0.266666,-0.395555 0.09778,-0.226667 0.09778,-0.484445 V 3.4421267 q 0,-0.066667 0.04444,-0.1066666 0.04889,-0.044444 0.111111,-0.044444 z"
         style="font-style:normal;font-variant:normal;font-weight:normal;font-stretch:normal;font-family:Moderan;-inkscape-font-specification:Moderan;fill:#ffffff;fill-opacity:0.94117647"
         id="path845"
         inkscape:connector-curvature="0" />
      <path
         d="m 50.826892,17.242127 q -0.0089,0.03111 -0.01333,0.05778 0,0.02222 0.01333,0.05778 l 5.488889,13.72 q 0.03556,0.08 -0.01333,0.146667 -0.04889,0.06667 -0.128889,0.06667 h -5.266667 q -0.102222,0 -0.142222,-0.09778 L 48.151337,24.65546 q -0.02222,-0.04889 -0.06222,-0.07111 -0.04,-0.02667 -0.08445,-0.02667 -0.04444,0 -0.08889,0.02667 -0.04,0.02222 -0.05778,0.07111 l -2.608888,6.537778 q -0.02222,0.04889 -0.06222,0.07555 -0.03556,0.02222 -0.08444,0.02222 h -5.262222 q -0.08,0 -0.133334,-0.06667 -0.04889,-0.06667 -0.01333,-0.146667 l 5.488889,-13.72 q 0.02222,-0.06222 0,-0.115555 L 39.693559,3.5221267 q -0.03556,-0.088889 0.01778,-0.16 0.05778,-0.071111 0.128889,-0.071111 h 5.262222 q 0.04889,0 0.08444,0.031111 0.04,0.026667 0.06222,0.075556 l 2.608888,6.5422222 q 0.01778,0.053333 0.05778,0.08 0.04444,0.02222 0.08889,0.02222 0.04445,0 0.08445,-0.02222 0.04,-0.026667 0.06222,-0.075556 L 50.76467,3.3976823 q 0.04444,-0.1066667 0.142222,-0.1066667 h 5.266667 q 0.03111,0 0.06222,0.017778 0.03556,0.017778 0.05778,0.048889 0.02222,0.031111 0.03111,0.075556 0.0089,0.04 -0.0089,0.084445 z"
         style="font-style:normal;font-variant:normal;font-weight:normal;font-stretch:normal;font-family:Moderan;-inkscape-font-specification:Moderan;fill:#ffffff;fill-opacity:0.94117647"
         id="path847"
         inkscape:connector-curvature="0" />
      <path
         d="m 63.947656,31.131016 q 0,0.06222 -0.04889,0.111111 -0.04889,0.04889 -0.111111,0.04889 h -5.28 q -0.06222,0 -0.111111,-0.04889 -0.04889,-0.04889 -0.04889,-0.111111 V 3.4510156 q 0,-0.062222 0.04889,-0.1111111 0.04889,-0.048889 0.111111,-0.048889 h 5.28 q 0.06222,0 0.111111,0.048889 0.04889,0.048889 0.04889,0.1111111 z"
         style="font-style:normal;font-variant:normal;font-weight:normal;font-stretch:normal;font-family:Moderan;-inkscape-font-specification:Moderan;fill:#ffffff;fill-opacity:0.94117647"
         id="path849"
         inkscape:connector-curvature="0" />
      <path
         d="m 76.965781,25.691016 q 0.06222,0 0.08889,0.04889 0.03111,0.04889 0.03111,0.111111 v 5.28 q 0,0.06222 -0.03111,0.111111 -0.02667,0.04889 -0.08889,0.04889 h -10.92 q -0.06222,0 -0.09333,-0.04889 -0.02667,-0.04889 -0.02667,-0.111111 V 3.4510156 q 0,-0.062222 0.02667,-0.1111111 0.03111,-0.048889 0.09333,-0.048889 h 5.32 q 0.06222,0 0.08889,0.048889 0.03111,0.048889 0.03111,0.1111111 V 25.531016 q 0,0.06222 0.04889,0.111111 0.04889,0.04889 0.111111,0.04889 z"
         style="font-style:normal;font-variant:normal;font-weight:normal;font-stretch:normal;font-family:Moderan;-inkscape-font-specification:Moderan;fill:#ffffff;fill-opacity:0.94117647"
         id="path851"
         inkscape:connector-curvature="0" />
      <path
         d="m 84.650781,31.131016 q 0,0.06222 -0.04889,0.111111 -0.04889,0.04889 -0.111111,0.04889 h -5.28 q -0.06222,0 -0.111111,-0.04889 -0.04889,-0.04889 -0.04889,-0.111111 V 3.4510156 q 0,-0.062222 0.04889,-0.1111111 0.04889,-0.048889 0.111111,-0.048889 h 5.28 q 0.06222,0 0.111111,0.048889 0.04889,0.048889 0.04889,0.1111111 z"
         style="font-style:normal;font-variant:normal;font-weight:normal;font-stretch:normal;font-family:Moderan;-inkscape-font-specification:Moderan;fill:#ffffff;fill-opacity:0.94117647"
         id="path853"
         inkscape:connector-curvature="0" />
      <path
         d="m 103.42891,26.011016 q 0,0.728889 -0.19111,1.404444 -0.18667,0.675556 -0.52889,1.262222 -0.34223,0.586667 -0.82667,1.071111 -0.48,0.48 -1.06667,0.822223 -0.58666,0.342222 -1.262219,0.533333 -0.675556,0.186667 -1.404445,0.186667 h -6.24 q -0.728889,0 -1.404444,-0.186667 -0.675556,-0.191111 -1.262222,-0.533333 -0.586667,-0.342223 -1.071112,-0.822223 -0.48,-0.484444 -0.822222,-1.071111 -0.342222,-0.586666 -0.533333,-1.262222 -0.186667,-0.675555 -0.186667,-1.404444 V 8.5710156 q 0,-0.7288889 0.186667,-1.4044444 0.191111,-0.6755556 0.533333,-1.2622222 0.342222,-0.5866667 0.822222,-1.0666667 0.484445,-0.4844445 1.071112,-0.8266667 0.586666,-0.3422222 1.262222,-0.5288889 0.675555,-0.1911111 1.404444,-0.1911111 h 6.24 q 0.728889,0 1.404445,0.1911111 0.675559,0.1866667 1.262219,0.5288889 0.58667,0.3422222 1.06667,0.8266667 0.48444,0.48 0.82667,1.0666667 0.34222,0.5866666 0.52889,1.2622222 0.19111,0.6755555 0.19111,1.4044444 z m -5.600004,-15.88 q 0,-0.2533337 -0.09778,-0.4800004 Q 97.633346,9.424349 97.46446,9.2554601 97.295571,9.0865712 97.068904,8.9887934 q -0.226666,-0.097778 -0.48,-0.097778 h -3.12 q -0.253333,0 -0.48,0.097778 -0.226666,0.097778 -0.395555,0.2666667 -0.168889,0.1688889 -0.266667,0.3955555 -0.09778,0.2266667 -0.09778,0.4800004 v 14.32 q 0,0.253333 0.09778,0.48 0.09778,0.226666 0.266667,0.395555 0.168889,0.168889 0.395555,0.266667 0.226667,0.09778 0.48,0.09778 h 3.12 q 0.253334,0 0.48,-0.09778 0.226667,-0.09778 0.395556,-0.266667 0.168889,-0.168889 0.266666,-0.395555 0.09778,-0.226667 0.09778,-0.48 z"
         style="font-style:normal;font-variant:normal;font-weight:normal;font-stretch:normal;font-family:Moderan;-inkscape-font-specification:Moderan;fill:#ffffff;fill-opacity:0.94117647"
         id="path855"
         inkscape:connector-curvature="0" />
    </g>
  </g>
</svg>
