<svg xmlns="http://www.w3.org/2000/svg" x="0px" y="0px"
width="90" height="90"
viewBox="0 0 64 64"
style=" fill:#000000;"><g id="surface1"><path style=" fill:#C2CDE7;" d="M 61 59.378906 C 61 59.933594 60.550781 60.378906 60 60.378906 L 4 60.378906 C 3.449219 60.378906 3 59.933594 3 59.378906 L 3 51.378906 C 3.023438 47.804688 5.078125 44.554688 8.300781 43 L 22.371094 36.269531 C 24.921875 39.480469 28.28125 41.769531 32 41.769531 C 35.71875 41.769531 39.078125 39.480469 41.628906 36.269531 L 55.699219 43 C 58.929688 44.558594 60.988281 47.824219 61 51.410156 Z "></path><path style=" fill:#D6DFF2;" d="M 42.28125 40.859375 L 32 46 L 21.71875 40.859375 C 20.859375 40.429688 20.257813 39.609375 20.101563 38.660156 C 19.949219 37.707031 20.261719 36.742188 20.941406 36.058594 L 21 36 L 43 36 L 43.058594 36.058594 C 43.738281 36.742188 44.050781 37.707031 43.898438 38.660156 C 43.742188 39.609375 43.140625 40.429688 42.28125 40.859375 Z "></path><path style=" fill:#ED7899;" d="M 39 49 L 32 47 L 25 49 L 25 43 L 32 45 L 39 43 Z "></path><path style=" fill:#ACB7D0;" d="M 57 56 L 7 56 C 4.789063 56 3 57.789063 3 60 C 3 60.550781 3.449219 61 4 61 L 60 61 C 60.550781 61 61 60.550781 61 60 C 61 57.789063 59.210938 56 57 56 Z "></path><path style=" fill:#FAEFDE;" d="M 19.070313 28.128906 C 18.761719 28.128906 17.761719 27.308594 17.238281 25.359375 C 16.71875 23.410156 17.191406 22.089844 17.429688 22.03125 C 17.429688 22.03125 19.328125 21.699219 19.351563 21.320313 C 19.375 20.773438 19.433594 20.230469 19.53125 19.691406 C 19.585938 19.113281 19.558594 18.53125 19.449219 17.960938 C 19.1875 16.160156 19.140625 14.332031 19.320313 12.519531 C 19.660156 9.140625 21.640625 7.128906 24.628906 7.128906 C 24.855469 7.128906 25.078125 7.054688 25.261719 6.921875 C 27.285156 5.664063 29.617188 5 32 5 L 33.058594 5 C 39.480469 5 44.058594 8.28125 46.011719 14.070313 C 45.28125 13.988281 45.519531 14.5 45.011719 15 C 44.5 15.5 43.230469 15.699219 43.710938 17 C 44.289063 18.367188 44.628906 19.828125 44.710938 21.308594 C 44.710938 21.691406 46.609375 21.019531 46.628906 21.019531 C 46.890625 21.109375 47.351563 23.390625 46.820313 25.351563 C 46.289063 27.308594 45.300781 28.121094 44.988281 28.121094 C 44.53125 28.136719 44.128906 28.441406 43.988281 28.878906 C 42.210938 34.878906 37.550781 40.929688 32.070313 40.929688 C 26.589844 40.929688 21.859375 34.871094 20.078125 28.878906 C 19.945313 28.4375 19.535156 28.132813 19.070313 28.128906 Z "></path><path style=" fill:#CDA1A7;" d="M 19.449219 18 C 22.4375 17.796875 25.015625 15.828125 26 13 C 29 14 30 17 44 16 C 45.390625 15.898438 45.601563 16.390625 46 16 C 46.398438 15.609375 45.28125 14 46 14.070313 C 44.109375 8.28125 39.46875 5 33.058594 5 L 32 5 C 29.617188 4.992188 27.277344 5.648438 25.25 6.898438 C 25.066406 7.035156 24.847656 7.109375 24.621094 7.109375 C 21.621094 7.109375 19.621094 9.109375 19.308594 12.5 C 19.132813 14.3125 19.175781 16.136719 19.441406 17.941406 Z "></path><path style=" fill:#8D6C9F;" d="M 47 54 C 46.449219 54 46 54.449219 46 55 L 46 57 C 46 57.550781 46.449219 58 47 58 C 47.550781 58 48 57.550781 48 57 L 48 55 C 48 54.449219 47.550781 54 47 54 Z "></path><path style=" fill:#8D6C9F;" d="M 52 54 C 51.449219 54 51 54.449219 51 55 L 51 57 C 51 57.550781 51.449219 58 52 58 C 52.550781 58 53 57.550781 53 57 L 53 55 C 53 54.449219 52.550781 54 52 54 Z "></path><path style=" fill:#8D6C9F;" d="M 56 55 L 56 57 C 56 57.550781 56.449219 58 57 58 C 57.550781 58 58 57.550781 58 57 L 58 55 C 58 54.449219 57.550781 54 57 54 C 56.449219 54 56 54.449219 56 55 Z "></path><path style=" fill:#8D6C9F;" d="M 42 54 C 41.449219 54 41 54.449219 41 55 L 41 57 C 41 57.550781 41.449219 58 42 58 C 42.550781 58 43 57.550781 43 57 L 43 55 C 43 54.449219 42.550781 54 42 54 Z "></path><path style=" fill:#8D6C9F;" d="M 37 54 C 36.449219 54 36 54.449219 36 55 L 36 57 C 36 57.550781 36.449219 58 37 58 C 37.550781 58 38 57.550781 38 57 L 38 55 C 38 54.449219 37.550781 54 37 54 Z "></path><path style=" fill:#8D6C9F;" d="M 32 50 C 31.449219 50 31 50.449219 31 51 L 31 57 C 31 57.550781 31.449219 58 32 58 C 32.550781 58 33 57.550781 33 57 L 33 51 C 33 50.449219 32.550781 50 32 50 Z "></path><path style=" fill:#8D6C9F;" d="M 27 54 C 26.449219 54 26 54.449219 26 55 L 26 57 C 26 57.550781 26.449219 58 27 58 C 27.550781 58 28 57.550781 28 57 L 28 55 C 28 54.449219 27.550781 54 27 54 Z "></path><path style=" fill:#8D6C9F;" d="M 22 54 C 21.449219 54 21 54.449219 21 55 L 21 57 C 21 57.550781 21.449219 58 22 58 C 22.550781 58 23 57.550781 23 57 L 23 55 C 23 54.449219 22.550781 54 22 54 Z "></path><path style=" fill:#8D6C9F;" d="M 17 54 C 16.449219 54 16 54.449219 16 55 L 16 57 C 16 57.550781 16.449219 58 17 58 C 17.550781 58 18 57.550781 18 57 L 18 55 C 18 54.449219 17.550781 54 17 54 Z "></path><path style=" fill:#8D6C9F;" d="M 12 54 C 11.449219 54 11 54.449219 11 55 L 11 57 C 11 57.550781 11.449219 58 12 58 C 12.550781 58 13 57.550781 13 57 L 13 55 C 13 54.449219 12.550781 54 12 54 Z "></path><path style=" fill:#8D6C9F;" d="M 7 54 C 6.449219 54 6 54.449219 6 55 L 6 57 C 6 57.550781 6.449219 58 7 58 C 7.550781 58 8 57.550781 8 57 L 8 55 C 8 54.449219 7.550781 54 7 54 Z "></path><path style=" fill:#8D6C9F;" d="M 39.398438 42.46875 C 39.027344 42.183594 38.542969 42.09375 38.089844 42.21875 L 33.378906 43.570313 C 32.480469 43.828125 31.527344 43.828125 30.628906 43.570313 L 25.921875 42.21875 C 25.464844 42.085938 24.976563 42.175781 24.601563 42.460938 C 24.222656 42.742188 24 43.1875 24 43.660156 L 24 48.328125 C 24 48.800781 24.222656 49.242188 24.597656 49.523438 C 24.972656 49.808594 25.457031 49.898438 25.910156 49.769531 L 30.621094 48.421875 C 31.519531 48.164063 32.472656 48.164063 33.371094 48.421875 L 38.078125 49.769531 C 38.214844 49.808594 38.351563 49.828125 38.488281 49.828125 C 39.320313 49.828125 39.988281 49.160156 39.988281 48.328125 L 39.988281 43.660156 C 39.992188 43.191406 39.773438 42.753906 39.398438 42.46875 Z M 38.398438 48.070313 L 34 46.789063 C 32.660156 46.398438 31.238281 46.398438 29.898438 46.789063 L 25.601563 48.058594 L 25.601563 43.898438 L 30 45.171875 C 31.339844 45.5625 32.761719 45.5625 34.101563 45.171875 L 38.398438 43.898438 Z "></path><path style=" fill:#8D6C9F;" d="M 55.75 41.378906 L 42.480469 35 C 43.539063 33.355469 44.386719 31.585938 45 29.730469 C 46.230469 29.269531 47.351563 27.730469 47.878906 25.730469 C 48.191406 24.644531 48.253906 23.503906 48.058594 22.390625 C 47.957031 21.351563 47.257813 20.46875 46.269531 20.128906 C 46.128906 20.089844 45.984375 20.066406 45.839844 20.058594 C 45.667969 18.882813 45.359375 17.726563 44.921875 16.621094 L 44.921875 16.511719 C 45.394531 16.566406 45.859375 16.6875 46.300781 16.871094 C 46.644531 17.011719 47.039063 16.953125 47.324219 16.714844 C 47.613281 16.472656 47.742188 16.09375 47.660156 15.730469 C 46 8.410156 40.558594 4 33 4 L 32 4 C 29.429688 4.011719 26.90625 4.699219 24.691406 6 C 21 6.140625 18.421875 8.761719 18 12.898438 C 17.816406 14.765625 17.859375 16.644531 18.128906 18.5 C 18.183594 18.832031 18.214844 19.164063 18.21875 19.5 C 18.21875 19.6875 18.191406 19.875 18.128906 20.070313 C 17.980469 20.074219 17.832031 20.097656 17.691406 20.140625 C 16.703125 20.480469 16.003906 21.363281 15.898438 22.398438 C 15.707031 23.511719 15.769531 24.65625 16.078125 25.738281 C 16.621094 27.738281 17.738281 29.238281 18.960938 29.738281 C 19.585938 31.59375 20.449219 33.363281 21.519531 35 L 8.25 41.378906 C 4.441406 43.21875 2.011719 47.070313 2 51.300781 L 2 59 C 2 60.65625 3.34375 62 5 62 L 59 62 C 60.65625 62 62 60.65625 62 59 L 62 51.300781 C 61.988281 47.070313 59.558594 43.21875 55.75 41.378906 Z M 19.75 27.878906 C 19.460938 27.878906 18.511719 27.101563 18.019531 25.261719 C 17.792969 24.472656 17.742188 23.648438 17.871094 22.839844 C 17.96875 22.328125 18.160156 22.121094 18.199219 22.109375 C 18.296875 22.128906 18.390625 22.167969 18.46875 22.230469 C 18.769531 22.417969 19.148438 22.433594 19.464844 22.269531 C 19.78125 22.105469 19.984375 21.785156 20 21.429688 C 20.023438 20.914063 20.082031 20.398438 20.171875 19.890625 C 20.222656 19.34375 20.195313 18.789063 20.089844 18.25 C 19.851563 16.542969 19.820313 14.8125 20 13.101563 C 20.308594 9.910156 22.191406 8 25 8 C 25.214844 8 25.425781 7.929688 25.601563 7.800781 C 27.523438 6.613281 29.742188 5.988281 32 6 L 33 6 C 39.070313 6 43.449219 9.101563 45.25 14.578125 C 44.578125 14.445313 43.878906 14.625 43.351563 15.058594 C 42.773438 15.6875 42.65625 16.609375 43.058594 17.359375 C 43.59375 18.65625 43.898438 20.03125 43.960938 21.429688 C 43.976563 21.785156 44.183594 22.105469 44.503906 22.269531 C 44.820313 22.433594 45.199219 22.414063 45.5 22.21875 C 45.578125 22.160156 45.671875 22.117188 45.769531 22.101563 C 45.828125 22.101563 46.011719 22.328125 46.109375 22.828125 C 46.253906 23.636719 46.214844 24.46875 46 25.261719 C 45.511719 27.101563 44.558594 27.878906 44.269531 27.878906 C 43.8125 27.859375 43.402344 28.152344 43.269531 28.589844 C 41.589844 34.261719 37.179688 40 32 40 C 26.820313 40 22.410156 34.261719 20.730469 28.601563 C 20.605469 28.171875 20.214844 27.878906 19.769531 27.878906 Z M 60 59 C 60 59.550781 59.550781 60 59 60 L 5 60 C 4.449219 60 4 59.550781 4 59 L 4 51.300781 C 4 47.832031 5.992188 44.675781 9.121094 43.179688 L 22.699219 36.679688 C 25.160156 39.789063 28.398438 42 32 42 C 35.601563 42 38.839844 39.789063 41.300781 36.691406 L 54.878906 43.191406 C 58.003906 44.683594 59.996094 47.835938 60 51.300781 Z "></path><path style=" fill:#8D6C9F;" d="M 27.921875 14.878906 C 30.785156 16.269531 33.925781 16.996094 37.109375 17 L 39.660156 17 C 40.210938 17 40.660156 16.550781 40.660156 16 C 40.660156 15.449219 40.210938 15 39.660156 15 L 37.109375 15 C 34.226563 14.996094 31.382813 14.339844 28.789063 13.078125 L 27.230469 12.320313 C 26.324219 11.878906 25.234375 12.179688 24.679688 13.019531 L 23.078125 15.449219 C 22.875 15.75 22.847656 16.132813 23.007813 16.457031 C 23.167969 16.78125 23.492188 16.992188 23.851563 17.011719 C 24.214844 17.03125 24.554688 16.855469 24.75 16.550781 L 26.351563 14.121094 Z "></path></g></svg>