<svg xmlns="http://www.w3.org/2000/svg" x="0px" y="0px"
width="100" height="100"
viewBox="0 0 224 224"
style=" fill:#000000;"><g fill="none" fill-rule="nonzero" stroke="none" stroke-width="1" stroke-linecap="butt" stroke-linejoin="miter" stroke-miterlimit="10" stroke-dasharray="" stroke-dashoffset="0" font-family="none" font-weight="none" font-size="none" text-anchor="none" style="mix-blend-mode: normal"><path d="M0,224v-224h224v224z" fill="none"></path><g fill="#aaaaaa"><g id="surface1"><path d="M112,26.88c51.87,0 94.08,36.155 94.08,80.605c0,44.45 -42.21,80.6225 -94.08,80.6225c-7.9275,0 -15.645,-0.91 -23.59,-2.765l-5.3025,-1.2425l-3.5525,4.13c-3.0625,3.5875 -13.3525,14.1225 -30.3275,17.08c3.2375,-5.845 5.6875,-11.795 7.2975,-17.745c1.2425,-4.6375 1.47,-7.07 1.54,-9.1875l0.21,-5.005l-4.1475,-2.8c-23.0125,-15.5575 -36.2075,-38.5525 -36.2075,-63.0875c0,-44.45 42.21,-80.605 94.08,-80.605M112,17.92c-56.77,0 -103.04,39.7775 -103.04,89.565c0,28.91 15.82,54.075 40.145,70.5075c-0.035,0.9625 0.035,2.5375 -1.2425,7.2275c-1.5575,5.8275 -4.7425,14.0175 -11.1825,23.2575l-4.585,6.5625h7.9975c27.7375,0 43.785,-18.0775 46.27,-20.9825c8.26,1.9425 16.765,3.01 25.6375,3.01c56.77,0 103.04,-39.7775 103.04,-89.5825c0,-49.7875 -46.27,-89.565 -103.04,-89.565z"></path></g></g></g></svg>